<?xml version="1.0" encoding="UTF-8"?>
<!-- Generated by Pixelmator Pro 3.7.1 -->
<svg width="796" height="658" viewBox="0 0 796 658" xmlns="http://www.w3.org/2000/svg">
    <g id="Group">
        <linearGradient id="linearGradient1" x1="397.517218" y1="236.286011" x2="397.517218" y2="520.630633" gradientUnits="userSpaceOnUse">
            <stop offset="0.33" stop-color="#543c28" stop-opacity="1"/>
            <stop offset="0.42" stop-color="#614631" stop-opacity="1"/>
            <stop offset="0.73" stop-color="#87644c" stop-opacity="1"/>
        </linearGradient>
        <path id="Path" fill="url(#linearGradient1)" stroke="none" d="M 794.279236 358.192444 C 794.279236 370.346008 776.603943 381.759521 745.531494 391.722198 C 678.101746 413.305664 547.520569 427.931458 397.517212 427.931458 C 247.513901 427.931458 114.268059 412.994751 47.445274 391.041199 C 44.484585 390.079041 41.65712 389.087219 38.962925 388.095337 C 38.518795 387.932526 38.074711 387.754883 37.630623 387.592072 C 13.974699 378.665558 0.755209 368.70285 0.755209 358.192444 C 0.755209 355.883026 1.391769 353.470062 2.635253 350.938721 C 2.679661 350.864624 2.709275 350.79071 2.753683 350.716644 L 17.409088 334.802917 C 34.832752 321.243011 65.268639 306.572845 105.311943 293.308899 C 119.77494 288.512512 135.481384 283.908661 152.283295 279.600891 C 219.772217 262.295654 304.951263 249.816376 397.517212 249.816376 C 490.083221 249.816376 575.262207 262.295654 642.751099 279.600891 C 658.368774 283.612671 673.02417 287.861237 686.613708 292.287476 C 728.181824 305.817841 759.713135 320.887634 777.610535 334.802917 L 792.280701 350.716644 C 792.280701 350.716644 792.354736 350.864624 792.39917 350.938721 C 793.6427 353.470062 794.279236 355.883026 794.279236 358.192444 Z"/>
        <linearGradient id="linearGradient2" x1="397.517218" y1="357.644675" x2="397.517218" y2="461.934963" gradientUnits="userSpaceOnUse">
            <stop offset="1e-05" stop-color="#543c28" stop-opacity="1"/>
            <stop offset="0.24" stop-color="#614631" stop-opacity="1"/>
            <stop offset="1" stop-color="#87644c" stop-opacity="1"/>
        </linearGradient>
        <path id="path1" fill="url(#linearGradient2)" stroke="none" style="mix-blend-mode:screen" d="M 793.50946 362.603851 C 780.571228 399.064728 608.214722 427.931458 397.517212 427.931458 C 186.819763 427.931458 14.463216 399.064728 1.524994 362.603851 C 42.500927 393.67627 204.243408 416.858521 397.517212 416.858521 C 590.791016 416.858521 752.533508 393.67627 793.50946 362.603851 Z"/>
        <radialGradient id="radialGradient1" cx="396.214515" cy="338.873903" r="262.716785" fx="396.214515" fy="338.873903" gradientUnits="userSpaceOnUse">
            <stop offset="0.34" stop-color="#f3c177" stop-opacity="1"/>
            <stop offset="0.5" stop-color="#eeb369" stop-opacity="1"/>
            <stop offset="0.64" stop-color="#eaa35a" stop-opacity="1"/>
            <stop offset="0.74" stop-color="#e59d56" stop-opacity="1"/>
            <stop offset="0.86" stop-color="#d98d4d" stop-opacity="1"/>
            <stop offset="1" stop-color="#c4733d" stop-opacity="1"/>
            <stop offset="1" stop-color="#c4733d" stop-opacity="1"/>
        </radialGradient>
        <path id="path2" fill="url(#radialGradient1)" stroke="none" opacity="0.3" style="mix-blend-mode:color-burn" d="M 753.584595 388.080505 C 748.447754 388.6875 743.103699 387.444061 738.766296 384.616577 C 741.194031 386.822266 743.458984 389.205597 745.531494 391.722198 C 678.101746 413.305664 547.520569 427.931458 397.517212 427.931458 C 247.513901 427.931458 114.268059 412.994751 47.445274 391.041199 C 49.369747 388.761505 51.442223 386.61499 53.662739 384.616577 C 49.340111 387.42926 44.055317 388.672699 38.962925 388.095337 C 38.918518 388.095337 38.888882 388.080505 38.844475 388.080505 C 38.385571 387.947327 37.985893 387.799347 37.630623 387.592072 C 35.188042 386.333801 34.92157 383.817108 36.446323 381.182159 C 41.079807 373.188354 47.874584 367.089325 55.379944 361.819214 C 62.855667 356.578827 71.027199 352.152618 78.488106 347.445129 C 84.838799 343.448181 93.484001 322.61972 99.479424 307.594177 C 101.907166 301.524811 103.90564 296.388062 105.134308 293.708527 C 105.193535 293.575348 105.252762 293.442169 105.311943 293.308899 C 119.77494 288.512512 135.481384 283.908661 152.283295 279.600891 C 219.772217 262.295654 304.951263 249.816376 397.517212 249.816376 C 490.083221 249.816376 575.262207 262.295654 642.751099 279.600891 C 658.368774 283.612671 673.02417 287.861237 686.613708 292.287476 C 686.835815 292.761108 687.057861 293.234924 687.279907 293.708527 C 688.4198 296.195587 690.210938 300.755005 692.387085 306.247101 C 698.412109 321.346649 707.382996 343.314911 713.926086 347.445129 C 717.034851 349.399109 720.262024 351.308807 723.533508 353.262878 C 724.569763 353.884583 725.62085 354.521118 726.671814 355.142853 C 738.040955 362.041321 749.276733 369.620667 755.967896 381.182159 C 757.729553 384.202026 757.122559 387.059174 753.584595 388.080505 Z"/>
        <g id="Head">
            <g id="g1">
                <path id="path3" fill="#f09448" stroke="none" d="M 745.561035 158.538361 C 745.561035 209.861877 721.209351 254.716309 684.926208 278.964355 C 666.703125 291.162384 645.460144 298.164398 622.766418 298.164398 C 609.769043 298.164398 597.2453 295.869873 585.491394 291.606476 C 535.88501 273.664703 499.957092 220.875641 499.957092 158.538361 C 499.957092 137.458191 504.057587 117.488342 511.414948 99.576172 C 530.970337 51.923889 573.470947 18.912109 622.766418 18.912109 C 682.217163 18.912109 731.808655 66.964172 743.11853 130.76709 C 744.717224 139.737976 745.561035 149.034485 745.561035 158.538361 Z"/>
                <radialGradient id="radialGradient2" cx="638.179827" cy="159.841008" r="96.758294" fx="638.179827" fy="159.841008" gradientUnits="userSpaceOnUse">
                    <stop offset="1e-05" stop-color="#f38a6b" stop-opacity="1"/>
                    <stop offset="0.62" stop-color="#dd6552" stop-opacity="1"/>
                    <stop offset="0.84" stop-color="#c74838" stop-opacity="1"/>
                    <stop offset="0.97" stop-color="#be3d2e" stop-opacity="1"/>
                </radialGradient>
                <path id="path4" fill="url(#radialGradient2)" stroke="none" opacity="0.4" style="mix-blend-mode:color-dodge" d="M 719.788269 159.840973 C 719.788269 217.038361 685.768127 263.405914 643.802185 263.405914 C 601.836243 263.405914 567.81604 217.038361 567.81604 159.840973 C 567.81604 102.643677 601.836243 56.276123 643.802185 56.276123 C 685.768127 56.276123 719.788269 102.643677 719.788269 159.840973 Z"/>
                <radialGradient id="radialGradient3" cx="581.760928" cy="213.858788" r="147.146269" fx="581.760928" fy="213.858788" gradientUnits="userSpaceOnUse">
                    <stop offset="1e-05" stop-color="#f38a6b" stop-opacity="1"/>
                    <stop offset="1" stop-color="#d15644" stop-opacity="1"/>
                </radialGradient>
                <path id="path5" fill="url(#radialGradient3)" stroke="none" d="M 712.697388 159.840973 C 712.697388 217.038361 681.851929 263.405914 643.802185 263.405914 C 605.752441 263.405914 574.906982 217.038361 574.906982 159.840973 C 574.906982 102.643677 605.752441 56.276123 643.802185 56.276123 C 681.851929 56.276123 712.697388 102.643677 712.697388 159.840973 Z"/>
                <path id="path6" fill="#92512e" stroke="none" d="M 620.738342 207.271271 C 627.103943 206.116577 634.44635 202.252899 633.202942 193.607635 C 632.921692 191.624023 632.181519 189.714325 630.937988 188.130432 C 627.666382 183.94104 619.036011 180.491791 614.076843 182.40152 C 619.554138 180.284546 624.750122 176.805756 627.947632 171.772552 C 631.145264 166.724609 632.714417 158.789978 628.983887 153.638336 C 626.141663 149.700653 621.197266 148.471924 616.578613 149.034485 C 610.553589 149.774658 605.342834 153.96405 601.627136 158.538361 C 605.683289 153.53479 609.7099 147.879852 611.604675 141.662415 C 612.448486 138.894165 612.92218 135.578186 611.234558 133.00238 C 606.823181 126.251953 595.246887 128.990662 589.72522 132.484253 C 582.412292 137.102905 577.79364 145.333618 575.558289 153.505157 L 575.558289 153.5495 C 575.484192 153.786407 574.75885 155.799652 574.966125 156.006927 C 586.1427 166.917053 597.319336 177.812378 608.48114 188.722504 C 613.914001 194.022186 615.305542 201.971619 620.738342 207.286011 Z"/>
                <path id="path7" fill="#f1a160" stroke="none" d="M 46.853142 158.538361 C 46.853142 209.861877 71.204834 254.716309 107.488052 278.964355 C 125.711136 291.162384 146.954056 298.164398 169.647766 298.164398 C 237.477173 298.164398 292.457153 235.649475 292.457153 158.538361 C 292.457153 137.458191 288.356598 117.488342 280.999298 99.576172 C 261.443909 51.923889 218.943222 18.912109 169.647766 18.912109 C 101.833168 18.912109 46.853142 81.427185 46.853142 158.538361 Z"/>
                <radialGradient id="radialGradient4" cx="156.891618" cy="159.841008" r="96.758294" fx="156.891618" fy="159.841008" gradientUnits="userSpaceOnUse">
                    <stop offset="1e-05" stop-color="#f38a6b" stop-opacity="1"/>
                    <stop offset="0.62" stop-color="#dd6552" stop-opacity="1"/>
                    <stop offset="0.84" stop-color="#c74838" stop-opacity="1"/>
                    <stop offset="0.97" stop-color="#be3d2e" stop-opacity="1"/>
                </radialGradient>
                <path id="path8" fill="url(#radialGradient4)" stroke="none" opacity="0.4" style="mix-blend-mode:color-dodge" d="M 224.598145 159.840973 C 224.598145 217.038361 190.578003 263.405914 148.61203 263.405914 C 106.646095 263.405914 72.625954 217.038361 72.625954 159.840973 C 72.625954 102.643677 106.646095 56.276123 148.61203 56.276123 C 190.578003 56.276123 224.598145 102.643677 224.598145 159.840973 Z"/>
                <radialGradient id="radialGradient5" cx="210.668102" cy="213.858788" r="147.146269" fx="210.668102" fy="213.858788" gradientUnits="userSpaceOnUse">
                    <stop offset="1e-05" stop-color="#f38a6b" stop-opacity="1"/>
                    <stop offset="1" stop-color="#d15644" stop-opacity="1"/>
                </radialGradient>
                <path id="path9" fill="url(#radialGradient5)" stroke="none" d="M 217.507294 159.840973 C 217.507294 217.038361 186.661835 263.405914 148.61203 263.405914 C 110.562271 263.405914 79.716812 217.038361 79.716812 159.840973 C 79.716812 102.643677 110.562271 56.276123 148.61203 56.276123 C 186.661835 56.276123 217.507294 102.643677 217.507294 159.840973 Z"/>
                <path id="path10" fill="#92512e" stroke="none" d="M 171.690643 207.271271 C 165.325134 206.116577 157.982635 202.252899 159.22612 193.607635 C 159.507385 191.624023 160.247559 189.714325 161.491043 188.130432 C 164.762589 183.94104 173.393036 180.491791 178.352188 182.40152 C 172.874893 180.284546 167.678879 176.805756 164.481323 171.772552 C 161.283813 166.724609 159.714615 158.789978 163.445114 153.638336 C 166.287354 149.700653 171.231735 148.471924 175.850403 149.034485 C 181.875381 149.774658 187.086212 153.96405 190.801849 158.538361 C 186.745728 153.53479 182.719177 147.879852 180.824341 141.662415 C 179.98053 138.894165 179.506866 135.578186 181.194427 133.00238 C 185.605881 126.251953 197.182175 128.990662 202.703842 132.484253 C 210.016739 137.102905 214.635406 145.333618 216.870743 153.505157 L 216.870743 153.5495 C 216.944748 153.786407 217.670151 155.799652 217.462875 156.006927 C 206.286285 166.917053 195.109665 177.812378 183.947891 188.722504 C 178.515015 194.022186 177.123489 201.971619 171.690643 207.286011 Z"/>
            </g>
            <linearGradient id="linearGradient3" x1="749.424775" y1="275.48554" x2="666.599486" y2="212.926171" gradientUnits="userSpaceOnUse">
                <stop offset="0.11" stop-color="#fdf2a5" stop-opacity="1"/>
                <stop offset="0.15" stop-color="#fcf2a6" stop-opacity="0.96"/>
                <stop offset="0.22" stop-color="#fcf2ab" stop-opacity="0.85"/>
                <stop offset="0.32" stop-color="#fcf2b2" stop-opacity="0.67"/>
                <stop offset="0.43" stop-color="#fbf2bd" stop-opacity="0.42"/>
                <stop offset="0.55" stop-color="#faf2ca" stop-opacity="0.1"/>
                <stop offset="0.59" stop-color="#faf3cf" stop-opacity="0"/>
            </linearGradient>
            <path id="path11" fill="url(#linearGradient3)" stroke="none" style="mix-blend-mode:overlay" d="M 745.561035 158.538361 C 745.561035 209.861877 721.209351 254.716309 684.926208 278.964355 C 666.703125 291.162384 645.460144 298.164398 622.766418 298.164398 C 609.769043 298.164398 597.2453 295.869873 585.491394 291.606476 C 594.995239 287.298706 608.880859 283.34613 628.214172 279.941437 C 737.522766 260.682129 747.056213 178.034485 743.11853 130.76709 C 744.717224 139.737976 745.561035 149.034485 745.561035 158.538361 Z"/>
            <path id="path12" fill="#f1b16e" stroke="none" opacity="0.4" style="mix-blend-mode:multiply" d="M 281.014069 99.576172 C 288.371368 117.488342 292.471954 137.458191 292.471954 158.538361 C 292.471954 235.649475 237.491943 298.164398 169.662537 298.164398 C 146.968872 298.164398 125.711136 291.162384 107.488052 278.949554 C 111.677452 270.70401 116.088898 262.562134 120.692749 254.538666 C 122.602402 251.193085 124.556427 247.862305 126.554901 244.561157 C 136.458405 228.114563 147.29454 212.156403 159.196533 196.98288 C 163.089844 192.023743 167.101563 187.153351 171.216919 182.386688 C 171.912689 181.58725 172.593628 180.787903 173.304214 179.988525 C 176.087265 176.805756 178.944321 173.66745 181.845779 170.573486 C 191.245987 160.551605 201.282715 150.973724 211.941223 142.062134 C 213.303116 140.922241 214.679825 139.782349 216.07135 138.672058 C 235.759964 122.773193 257.446991 109.257629 281.014069 99.576172 Z"/>
            <path id="path13" fill="#f1b16e" stroke="none" opacity="0.4" style="mix-blend-mode:multiply" d="M 684.926208 278.964355 C 666.703125 291.162384 645.460144 298.164398 622.766418 298.164398 C 554.937134 298.164398 499.957092 235.649475 499.957092 158.538361 C 499.957092 137.458191 504.057587 117.488342 511.414948 99.576172 C 534.981995 109.257629 556.669128 122.773193 576.357666 138.672058 C 577.749207 139.782349 579.125916 140.922241 580.487793 142.062134 C 591.146301 150.973724 601.183105 160.551605 610.583252 170.573486 C 613.484741 173.66745 616.341797 176.805756 619.124878 179.988525 C 619.835388 180.787903 620.531189 181.58725 621.226929 182.40152 C 625.342285 187.168182 629.354004 192.038483 633.232483 196.997681 C 645.134521 212.156403 655.970642 228.114563 665.874146 244.561157 C 667.87262 247.862305 669.82666 251.193085 671.736267 254.538666 C 676.340088 262.576935 680.736816 270.718842 684.926208 278.964355 Z"/>
            <path id="path14" fill="#f1b16e" stroke="none" d="M 748.80304 508.417786 C 736.279358 527.839905 728.241028 494.32489 725.087952 481.978882 C 729.366089 500.142731 726.05011 523.4729 722.112427 540.95575 C 718.870483 555.270752 712.430908 568.44574 698.397278 574.855713 C 696.472839 575.729004 694.385498 576.469238 692.268616 576.261963 C 690.166565 576.054749 688.049683 574.67804 687.59082 572.60553 C 687.265076 571.184448 687.753601 569.704102 688.242126 568.327332 C 689.781677 563.945557 691.321228 559.563721 692.86084 555.181824 C 688.686218 567.039429 677.539185 575.877014 668.272339 583.752563 C 656.518372 593.730103 643.787354 602.404907 630.390259 609.910217 C 624.794617 613.063354 619.065552 615.994446 613.262634 618.762695 C 598.503662 625.735107 583.167236 631.523254 567.623596 636.260376 C 548.882446 641.974487 529.75647 646.31189 510.423157 649.479797 C 479.735535 654.542603 448.529938 656.703918 417.457428 656.970337 C 416.302795 656.985168 415.133301 656.985168 413.978638 656.985168 L 412.527924 656.985168 C 408.249725 657.014832 403.986328 656.985168 399.722931 656.925964 C 398.938324 656.925964 398.168579 656.911194 397.384003 656.896362 L 395.045013 656.896362 C 390.95929 656.970337 386.858704 657 382.758179 657 C 381.485107 657 380.211975 657 378.938904 657 L 378.672424 657 C 377.443756 657 376.229858 656.985168 375.00119 656.985168 C 343.573456 656.71875 312.012482 654.49823 280.999298 649.331848 C 262.006439 646.178711 243.220871 641.900452 224.805374 636.275146 C 215.212769 633.358887 205.694168 630.028137 196.353149 626.282837 C 190.061676 623.751465 183.844254 621.027527 177.730423 618.096497 C 158.545181 608.859131 140.396133 597.564148 124.156746 583.767395 C 114.889778 575.891846 103.728012 567.05426 99.568245 555.196655 C 101.107773 559.578491 102.647339 563.960388 104.186913 568.342163 C 104.660637 569.718933 105.163948 571.19928 104.838264 572.620361 C 104.379364 574.692871 102.262436 576.069458 100.145554 576.276733 C 98.043488 576.484009 95.9562 575.743835 94.031723 574.870483 C 79.998085 568.460571 73.558578 555.285583 70.31662 540.970581 C 66.378891 523.487671 63.062939 500.157471 67.34111 481.993683 C 64.173195 494.339722 56.149708 527.854736 43.626003 508.432617 C 32.523418 491.231018 49.458565 443.016113 59.924614 420.751831 C 57.319191 422.631805 54.624954 424.423035 51.871532 426.081055 C 50.183918 427.102386 48.126263 428.094299 46.32024 427.324463 C 45.047123 426.776733 44.247723 425.429688 44.010906 424.052979 C 43.774048 422.690979 44.010906 421.284729 44.292175 419.922729 C 47.134411 405.977905 54.536137 392.995361 65.10582 383.447021 C 60.9016 386.170898 55.73521 387.369995 50.776047 386.792633 C 47.356457 385.800812 46.779144 383.032593 48.466713 380.116272 C 52.937386 372.388916 59.510117 366.497162 66.763802 361.404755 C 73.987892 356.34201 81.892921 352.063782 89.102196 347.504303 C 95.245621 343.640625 103.59478 323.507874 109.397713 308.985809 C 111.736679 303.123505 113.675926 298.164398 114.860184 295.573792 C 122.557999 278.831085 130.981155 262.428864 140.262909 246.515137 C 155.303223 220.683197 172.623215 196.065063 192.74115 173.904236 C 219.801849 144.090149 252.399017 118.213684 289.91095 102.951355 C 305.602631 96.571045 322.878204 91.153015 339.887421 91.611938 C 338.703094 90.856934 331.982361 86.327087 327.867004 79.043823 C 324.847107 73.72937 323.233521 66.934631 326.164581 59.088684 C 329.214081 50.887634 340.139038 52.057068 351.878204 56.202087 C 368.33963 62.034607 386.399811 73.758972 386.399811 73.758972 C 383.498352 68.651794 381.366638 64.136719 379.915894 60.198975 L 379.915894 60.198975 C 372.469757 39.99231 383.083862 35.284851 401.6474 47.882568 C 423.512054 62.715576 458.448181 90.842102 459.52887 91.730408 C 459.543701 91.745117 459.558441 91.745117 459.558441 91.745117 C 468.129669 92.278137 476.700836 94.12854 485.035187 96.659851 C 491.015747 98.480652 496.863129 100.656799 502.503235 102.951355 C 540.030029 118.213684 572.627197 144.090149 599.687927 173.904236 C 619.805725 196.065063 637.110962 220.683197 652.166138 246.515137 C 655.94104 252.984344 659.567871 259.542236 663.061462 266.174164 C 668.168701 275.82605 672.994629 285.640747 677.554016 295.573792 C 678.664246 297.971954 680.396362 302.383331 682.498413 307.683075 C 688.316162 322.279266 696.990967 343.522186 703.312073 347.504303 C 706.317078 349.399109 709.440674 351.249542 712.593811 353.129608 C 713.600464 353.736603 714.621887 354.343506 715.62854 354.950409 C 726.627502 361.611938 737.478455 368.939758 743.94751 380.116272 C 745.649841 383.032593 745.072632 385.800812 741.652893 386.792633 C 736.678955 387.369995 731.512573 386.170898 727.323181 383.447021 C 732.178772 387.843719 736.353333 392.936096 739.728516 398.546661 C 743.725464 405.119324 746.59729 412.387848 748.136841 419.922729 C 748.403381 421.284729 748.640198 422.690979 748.403381 424.052979 C 748.166504 425.429688 747.367126 426.776733 746.093933 427.324463 C 744.287964 428.094299 742.245117 427.102386 740.557495 426.081055 C 737.804077 424.423035 735.109802 422.631805 732.504395 420.751831 C 742.955627 443.016113 759.890808 491.231018 748.80304 508.432617 Z"/>
            <linearGradient id="linearGradient4" x1="395.948053" y1="303.286415" x2="395.948053" y2="171.106431" gradientUnits="userSpaceOnUse">
                <stop offset="0.24" stop-color="#fbf5ea" stop-opacity="1"/>
                <stop offset="0.52" stop-color="#fdc5b0" stop-opacity="1"/>
                <stop offset="0.81" stop-color="#ff9779" stop-opacity="1"/>
            </linearGradient>
            <path id="path15" fill="url(#linearGradient4)" stroke="none" opacity="0.5" style="mix-blend-mode:multiply" d="M 682.498413 307.668274 C 670.10791 302.531433 656.829163 297.379852 642.751099 292.376282 C 575.928406 268.587128 491.134216 247.995483 397.517212 247.758667 C 303.900238 247.995483 219.106079 268.587128 152.283295 292.376282 C 137.006134 297.809113 122.676407 303.419678 109.397713 308.970978 C 111.736679 303.108795 113.675926 298.149567 114.860184 295.55896 C 122.557999 278.816376 130.981155 262.414124 140.262909 246.500427 C 155.303223 220.668396 172.623215 196.050232 192.74115 173.889526 C 219.801849 144.075378 252.399017 118.198975 289.91095 102.936523 C 305.602631 96.556213 322.878204 91.138245 339.887421 91.597107 C 338.703094 90.842102 331.982361 86.312256 327.867004 79.028992 C 324.847107 73.714539 323.233521 66.9198 326.164581 59.073914 C 329.214081 50.872803 340.139038 52.042236 351.878204 56.187317 C 368.33963 62.019836 386.399811 73.744141 386.399811 73.744141 C 383.498352 68.636963 381.366638 64.121948 379.915894 60.184143 L 379.915894 60.184143 C 372.469757 39.977478 383.083862 35.27002 401.6474 47.867737 C 423.512054 62.700745 458.448181 90.827332 459.52887 91.715576 C 459.543701 91.730408 459.558441 91.730408 459.558441 91.730408 C 468.129669 92.263306 476.700836 94.113708 485.035187 96.645081 C 491.015747 98.465942 496.863129 100.642029 502.503235 102.936523 C 540.030029 118.198975 572.627197 144.075378 599.687927 173.889526 C 619.805725 196.050232 637.110962 220.668396 652.166138 246.500427 C 655.94104 252.969513 659.567871 259.527435 663.061462 266.159332 C 668.168701 275.811218 672.994629 285.625916 677.554016 295.55896 C 678.664246 297.957123 680.396362 302.368622 682.498413 307.668274 Z"/>
            <path id="path16" fill="#feedc9" stroke="none" d="M 578.518982 460.02533 C 585.136108 463.711365 603.151855 472.445374 601.479187 457.716003 C 600.383606 448.09375 595.30603 440.869659 588.111633 435.318359 C 577.94165 427.502106 563.567444 423.016724 550.273987 419.804382 C 523.775818 412.180573 501.067352 411.011047 501.067352 411.011047 C 488.869324 387.991791 472.02301 365.194458 447.730499 352.478333 C 423.970978 340.043396 384.653015 338.770325 358.969025 346.586517 C 329.850677 355.439026 309.244263 379.672272 295.077332 404.23114 C 293.789459 406.466461 292.545959 408.731445 291.332062 411.011047 C 291.332062 411.011047 268.6828 412.180573 242.214249 419.77475 C 228.891144 422.987061 214.472595 427.487305 204.287811 435.318359 C 197.078552 440.869659 192.000977 448.09375 190.905487 457.716003 C 189.232697 472.460175 207.248505 463.726196 213.865646 460.02533 C 194.561935 470.817017 177.641617 492.163635 182.571136 514.827637 C 183.562988 519.416748 186.094376 524.213074 191.852936 523.946594 C 194.413895 523.828247 196.812088 522.821533 199.151016 521.814941 C 201.874847 520.630615 204.672729 519.239136 207.485367 518.054871 C 182.304688 529.601563 188.773788 569.807678 202.037704 587.468262 C 215.938126 605.972534 239.105515 617.830139 259.356659 627.555908 C 282.96814 638.895386 308.059998 646.874451 333.655121 651.552368 C 406.10321 664.757019 483.55484 653.343567 549.445007 619.251221 C 564.677734 611.360962 579.703247 601.620239 590.317322 587.468262 C 603.581238 569.807678 610.050354 529.601563 584.869629 518.054871 C 587.682312 519.239136 590.480103 520.630615 593.203979 521.814941 C 595.542969 522.821533 597.941101 523.842957 600.502075 523.946594 C 606.26062 524.213074 608.791992 519.416748 609.798706 514.827637 C 614.713379 492.148834 597.79303 470.817017 578.48938 460.02533 Z"/>
            <linearGradient id="linearGradient5" x1="354.750058" y1="337.926483" x2="355.534641" y2="415.230086" gradientUnits="userSpaceOnUse">
                <stop offset="1e-05" stop-color="#fffbe3" stop-opacity="1"/>
                <stop offset="0.29" stop-color="#fef3d4" stop-opacity="1"/>
                <stop offset="0.62" stop-color="#feedc9" stop-opacity="1"/>
                <stop offset="0.73" stop-color="#fbe7c3" stop-opacity="1"/>
                <stop offset="0.86" stop-color="#f4d8b3" stop-opacity="1"/>
                <stop offset="1" stop-color="#eac19c" stop-opacity="1"/>
            </linearGradient>
            <path id="path17" fill="url(#linearGradient5)" stroke="none" opacity="0.6" d="M 397.517212 398.768646 C 397.517212 414.845184 378.642822 427.872192 355.356995 427.872192 C 332.071198 427.872192 313.196808 414.845184 313.196808 398.768646 C 313.196808 382.692047 335.120697 348.969849 358.406494 348.969849 C 381.692322 348.969849 397.502411 382.706848 397.502411 398.768646 Z"/>
            <linearGradient id="linearGradient6" x1="435.858148" y1="345.268993" x2="435.458455" y2="421.033038" gradientUnits="userSpaceOnUse">
                <stop offset="1e-05" stop-color="#fffbe3" stop-opacity="1"/>
                <stop offset="0.29" stop-color="#fef3d4" stop-opacity="1"/>
                <stop offset="0.62" stop-color="#feedc9" stop-opacity="1"/>
                <stop offset="0.73" stop-color="#fbe7c3" stop-opacity="1"/>
                <stop offset="0.86" stop-color="#f4d8b3" stop-opacity="1"/>
                <stop offset="1" stop-color="#eac19c" stop-opacity="1"/>
            </linearGradient>
            <path id="path18" fill="url(#linearGradient6)" stroke="none" opacity="0.6" d="M 393.431458 398.768646 C 393.431458 414.845184 412.305847 427.872192 435.591644 427.872192 C 458.877533 427.872192 477.751923 414.845184 477.751923 398.768646 C 477.751923 382.692047 458.181732 348.969849 434.895935 348.969849 C 411.610077 348.969849 393.446259 382.706848 393.446259 398.768646 Z"/>
            <g id="g2">
                <g id="g3">
                    <radialGradient id="radialGradient6" cx="282.654378" cy="313.505074" r="38.982884" fx="282.654378" fy="313.505074" gradientUnits="userSpaceOnUse">
                        <stop offset="1e-05" stop-color="#414042" stop-opacity="1"/>
                        <stop offset="1" stop-color="#231f20" stop-opacity="1"/>
                    </radialGradient>
                    <path id="path19" fill="url(#radialGradient6)" stroke="none" d="M 305.997284 315.790192 C 315.008453 340.656189 307.52063 366.174866 289.272736 372.787628 C 271.024872 379.400482 248.926987 364.603455 239.915802 339.737457 C 230.904617 314.871399 238.392441 289.352722 256.64032 282.739868 C 274.888214 276.127014 296.986053 290.924133 305.997284 315.790192 Z"/>
                    <path id="path20" fill="#ffffff" stroke="none" opacity="0.6" style="mix-blend-mode:color-dodge" d="M 292.576782 305.868896 C 296.27713 312.920135 295.573792 320.579559 291.005707 322.976898 C 286.437683 325.374146 279.734772 321.601349 276.034393 314.550201 C 272.334015 307.499054 273.037415 299.839539 277.605438 297.442291 C 282.173523 295.045044 288.876404 298.817749 292.576782 305.868896 Z"/>
                    <radialGradient id="radialGradient7" cx="267.909313" cy="341.942767" r="35.331325" fx="267.909313" fy="341.942767" gradientUnits="userSpaceOnUse">
                        <stop offset="1e-05" stop-color="#414042" stop-opacity="1"/>
                        <stop offset="1" stop-color="#231f20" stop-opacity="1"/>
                    </radialGradient>
                    <path id="path21" fill="url(#radialGradient7)" stroke="none" opacity="0.9" style="mix-blend-mode:color-burn" d="M 289.259613 372.847809 C 271.006958 379.450165 248.920197 364.66156 239.904907 339.791687 C 235.62674 327.934113 235.078964 315.943359 237.6548 305.936218 C 237.299484 313.337921 238.454163 321.36145 241.340851 329.325714 C 250.163681 353.632965 271.569519 368.155151 289.185608 361.774841 C 301.70929 357.244995 308.948212 343.344543 308.918579 326.942383 C 312.501038 347.889221 304.773621 367.222504 289.259613 372.847809 Z"/>
                </g>
                <g id="g4">
                    <radialGradient id="radialGradient8" cx="509.814382" cy="313.728065" r="38.982885" fx="509.814382" fy="313.728065" gradientUnits="userSpaceOnUse">
                        <stop offset="1e-05" stop-color="#414042" stop-opacity="1"/>
                        <stop offset="1" stop-color="#231f20" stop-opacity="1"/>
                    </radialGradient>
                    <path id="path22" fill="url(#radialGradient8)" stroke="none" d="M 535.847961 282.839783 C 554.095825 289.452637 561.583557 314.971344 552.572388 339.837311 C 543.561218 364.703369 521.463379 379.500488 503.215485 372.887665 C 484.967621 366.274811 477.479767 340.756104 486.490967 315.890045 C 495.502136 291.024048 517.600098 276.22702 535.847961 282.839783 Z"/>
                    <path id="path23" fill="#ffffff" stroke="none" opacity="0.6" style="mix-blend-mode:color-dodge" d="M 514.801636 297.426483 C 519.369751 299.82373 520.07312 307.483215 516.372803 314.534393 C 512.672363 321.585541 505.969452 325.358307 501.401398 322.96106 C 496.833313 320.563812 496.129913 312.904236 499.830322 305.853088 C 503.53064 298.80191 510.233582 295.029236 514.801636 297.426483 Z"/>
                    <radialGradient id="radialGradient9" cx="524.504838" cy="341.940455" r="35.331322" fx="524.504838" fy="341.940455" gradientUnits="userSpaceOnUse">
                        <stop offset="1e-05" stop-color="#414042" stop-opacity="1"/>
                        <stop offset="1" stop-color="#231f20" stop-opacity="1"/>
                    </radialGradient>
                    <path id="path24" fill="url(#radialGradient9)" stroke="none" opacity="0.9" style="mix-blend-mode:color-burn" d="M 503.169403 372.847809 C 521.422119 379.450165 543.508789 364.66156 552.52417 339.791687 C 556.802307 327.934113 557.349976 315.943359 554.774231 305.936218 C 555.129456 313.337921 553.974854 321.36145 551.088196 329.325714 C 542.265381 353.632965 520.859558 368.155151 503.243408 361.774841 C 490.719757 357.244995 483.480835 343.344543 483.510498 326.942383 C 479.927979 347.889221 487.655426 367.222504 503.169403 372.847809 Z"/>
                </g>
                <path id="path25" fill="#92512e" stroke="none" d="M 240.970764 214.362091 C 249.867645 206.072205 259.889557 199.144104 270.000305 194.259003 C 275.773682 191.461212 281.813477 189.329498 287.853302 188.929779 C 293.256561 188.574524 301.398438 188.959412 304.521942 195.280426 C 305.099304 196.43515 305.306519 198.033844 304.773621 199.336548 C 304.403534 200.239655 303.737366 200.890991 303.041595 201.349915 C 300.006927 203.333527 296.246826 202.637787 293.10849 202.445343 C 275.670044 201.349915 261.636353 205.420837 240.98558 214.376923 Z"/>
                <path id="path26" fill="#92512e" stroke="none" d="M 551.532227 214.362091 C 542.635437 206.072205 532.613525 199.144104 522.502686 194.259003 C 516.729431 191.461212 510.689606 189.329498 504.64975 188.929779 C 499.24646 188.574524 491.104584 188.959412 487.981079 195.280426 C 487.403717 196.43515 487.196533 198.033844 487.729431 199.336548 C 488.099518 200.239655 488.765686 200.890991 489.461395 201.349915 C 492.496094 203.333527 496.256226 202.637787 499.394562 202.445343 C 516.832947 201.349915 530.866699 205.420837 551.517517 214.376923 Z"/>
                <path id="path27" fill="#340304" stroke="none" d="M 451.860718 425.370483 C 451.860718 425.370483 449.284821 448.863556 438.226685 468.463318 C 429.759186 483.488831 416.332428 496.24942 395.281891 494.428528 C 374.216614 496.24942 360.775055 483.503571 352.337128 468.463318 C 341.278931 448.863556 338.703094 425.370483 338.703094 425.370483 C 349.287598 429.337708 361.322784 430.196442 372.0849 428.183105 C 373.313568 427.946289 374.527466 427.620544 375.726532 427.220947 C 377.206879 426.7323 378.642822 426.095856 380.049164 425.370483 L 410.514648 425.370483 C 411.92099 426.110657 413.371704 426.7323 414.83728 427.220947 C 416.036346 427.635376 417.235413 427.961121 418.464142 428.183105 C 429.226166 430.181641 441.276215 429.337708 451.845886 425.370483 Z"/>
                <radialGradient id="radialGradient10" cx="395.267094" cy="474.93239" r="33.396578" fx="395.267094" fy="474.93239" gradientUnits="userSpaceOnUse">
                    <stop offset="1e-05" stop-color="#f38a6b" stop-opacity="1"/>
                    <stop offset="1" stop-color="#d15644" stop-opacity="1"/>
                </radialGradient>
                <path id="path28" fill="url(#radialGradient10)" stroke="none" d="M 438.226685 468.448486 C 429.759186 483.47403 416.332428 496.234589 395.281891 494.413696 C 374.216614 496.234589 360.775055 483.488831 352.337128 468.448486 C 356.141571 463.104492 370.708191 446.361694 395.281891 461.328033 C 419.855652 446.361694 434.422211 463.104492 438.226685 468.448486 Z"/>
                <radialGradient id="radialGradient11" cx="395.281898" cy="428.25712" r="26.912668" fx="395.281898" fy="428.25712" gradientUnits="userSpaceOnUse">
                    <stop offset="0.07" stop-color="#fefefe" stop-opacity="1"/>
                    <stop offset="0.62" stop-color="#fefdfb" stop-opacity="1"/>
                    <stop offset="0.77" stop-color="#faf8f5" stop-opacity="1"/>
                    <stop offset="0.85" stop-color="#f8f4f0" stop-opacity="1"/>
                    <stop offset="1" stop-color="#f0e8e2" stop-opacity="1"/>
                </radialGradient>
                <path id="path29" fill="url(#radialGradient11)" stroke="none" d="M 426.028687 426.806396 C 425.880585 427.472473 425.466125 429.07135 424.755585 431.143799 C 422.934723 436.443451 419.219025 444.822144 412.927612 448.656311 C 410.366608 450.225464 407.080231 450.935974 404.134369 450.195801 C 401.129272 449.455627 399.190002 446.98349 398.05011 444.230072 C 396.673401 440.840027 396.406952 437.124329 395.281891 433.6604 L 395.281891 433.6604 C 395.281891 433.6604 395.148651 433.497559 395.104248 433.94165 C 394.71933 437.109528 393.993988 440.46994 392.89856 443.475098 C 391.891937 446.258148 390.219116 448.967102 387.332428 450.106995 C 384.149719 451.350433 380.434021 450.388275 377.606567 448.656311 C 371.374329 444.851807 367.65863 436.546997 365.83786 431.247437 C 365.127258 429.204529 364.712769 427.605835 364.535126 426.895203 C 366.918457 426.7323 369.316681 426.451111 371.67041 426.006958 C 377.813843 424.867126 384.430969 420.840576 389.84903 414.963623 C 391.477417 413.202026 392.469238 411.766052 393.076172 410.315308 C 393.253815 409.856445 393.357452 408.775818 393.372284 407.102997 L 395.26712 405.829834 L 398.346222 407.887543 C 398.346222 409.131073 398.449829 409.945251 398.612671 410.315308 C 399.219604 411.766052 400.226227 413.202026 401.854614 414.963623 C 407.257874 420.840576 413.889832 424.867126 420.033295 426.006958 C 422.016907 426.377014 424.015411 426.643555 426.028687 426.806396 Z"/>
                <g id="g5">
                    <path id="path30" fill="#340304" stroke="none" d="M 320.509705 392.388367 C 314.810364 394.312805 311.70163 395.763611 309.362701 400.604279 C 308.533722 402.217896 308.000763 403.905518 307.112549 405.622681 C 302.553101 396.859039 311.790436 387.16272 320.509705 392.388367 L 320.509705 392.388367 Z"/>
                    <path id="path31" fill="#340304" stroke="none" d="M 470.439026 392.388367 C 479.173004 387.147888 488.395599 396.859039 483.836121 405.622681 C 482.370605 402.632324 481.363953 399.212738 479.084167 396.918213 C 477.204193 394.875336 474.258331 393.705902 470.439026 392.403198 L 470.439026 392.403198 Z"/>
                    <path id="path32" fill="#340304" stroke="none" d="M 481.511963 394.668152 C 481.393524 396.163239 481.156708 397.687958 480.786621 399.197937 C 478.788177 407.576721 473.207245 415.866638 465.731537 421.16626 C 456.375732 427.813019 443.792816 431.454712 431.076599 431.454712 C 428.974548 431.454712 426.857666 431.351074 424.755585 431.143799 C 422.905182 430.966156 421.054749 430.714539 419.219025 430.374084 C 412.157837 429.056549 404.637665 424.541412 398.583069 417.983582 C 397.724487 417.036133 396.732635 415.851807 395.844421 414.475098 C 394.971008 415.851807 393.979187 417.036133 393.105774 417.983582 C 387.065979 424.541412 379.545807 429.056549 372.469757 430.374084 C 370.27887 430.788513 368.05838 431.069794 365.83786 431.247437 C 364.105835 431.380615 362.359039 431.454712 360.627014 431.454712 C 347.910858 431.454712 335.327911 427.813019 325.972168 421.16626 C 318.22995 415.674164 312.515808 406.984558 310.709778 398.294922 C 310.45816 397.081055 310.280518 395.867157 310.191681 394.668152 C 310.102875 393.439362 311.005859 392.373566 312.234589 392.269928 C 313.448425 392.195923 314.529083 393.098907 314.61792 394.312805 C 314.61792 394.475708 314.647491 394.638519 314.677124 394.801331 C 315.491302 403.239258 320.894562 412.121307 328.547974 417.55423 C 338.125793 424.36377 351.41925 427.724182 364.535126 426.895203 C 366.918457 426.7323 369.316681 426.451111 371.67041 426.006958 C 377.813843 424.867126 384.430969 420.840576 389.84903 414.963623 C 391.477417 413.202026 392.469238 411.766052 393.076172 410.315308 C 393.253815 409.856445 393.357452 408.775818 393.372284 407.102997 C 393.372284 405.859497 393.32785 404.290405 393.239014 402.395508 C 393.19458 401.714539 393.17981 401.18161 393.165009 400.885529 C 393.165009 399.656921 394.15686 398.665009 395.385529 398.650208 C 395.54837 398.650208 395.696381 398.665009 395.844421 398.694672 C 395.992462 398.665009 396.155273 398.650208 396.318146 398.650208 C 397.546814 398.665009 398.538666 399.656921 398.523834 400.885529 C 398.523834 401.18161 398.494263 401.714539 398.464661 402.410339 C 398.346222 404.734406 398.301788 406.555298 398.346222 407.887543 C 398.346222 409.131073 398.449829 409.945251 398.612671 410.315308 C 399.219604 411.766052 400.226227 413.202026 401.854614 414.963623 C 407.257874 420.840576 413.889832 424.867126 420.033295 426.006958 C 422.016907 426.377014 424.015411 426.643555 426.028687 426.806396 C 439.499786 427.916626 453.281769 424.556244 463.155731 417.55423 C 470.661011 412.210205 476.019958 403.5354 476.982117 395.230621 L 476.982117 395.230621 C 477.026581 394.904877 477.056122 394.623718 477.085754 394.312805 C 477.174561 393.098907 478.255188 392.181091 479.469086 392.269928 C 480.682983 392.373566 481.600769 393.439362 481.511963 394.668152 Z"/>
                </g>
                <g id="g6">
                    <radialGradient id="radialGradient12" cx="394.941418" cy="353.854992" r="36.298054" fx="394.941418" fy="353.854992" gradientUnits="userSpaceOnUse">
                        <stop offset="1e-05" stop-color="#414042" stop-opacity="1"/>
                        <stop offset="1" stop-color="#231f20" stop-opacity="1"/>
                    </radialGradient>
                    <path id="path33" fill="url(#radialGradient12)" stroke="none" d="M 446.146515 361.271484 C 446.146515 376.074951 423.393616 400.870728 395.40033 400.870728 C 367.407013 400.870728 344.757721 376.074951 344.757721 361.271484 C 344.757721 346.468048 367.451416 334.477295 395.459503 334.477295 C 423.467712 334.477295 446.161316 346.468048 446.161316 361.271484 Z"/>
                    <radialGradient id="radialGradient13" cx="394.941418" cy="371.796771" r="30.746761" fx="394.941418" fy="371.796771" gradientUnits="userSpaceOnUse">
                        <stop offset="1e-05" stop-color="#414042" stop-opacity="1"/>
                        <stop offset="1" stop-color="#231f20" stop-opacity="1"/>
                    </radialGradient>
                    <path id="path34" fill="url(#radialGradient13)" stroke="none" opacity="0.9" style="mix-blend-mode:color-burn" d="M 446.146515 361.256683 C 446.146515 376.06012 423.393616 400.870728 395.40033 400.870728 C 367.407013 400.870728 344.74295 376.06012 344.74295 361.256683 C 344.74295 360.768219 344.772522 360.279694 344.816925 359.805969 C 352.277893 372.714539 372.0849 387.059174 395.40033 387.059174 C 418.715759 387.059174 438.537598 372.744171 446.087341 359.835602 C 446.116974 360.309235 446.146515 360.783051 446.146515 361.256683 Z"/>
                    <path id="path35" fill="#ffffff" stroke="none" opacity="0.8" style="mix-blend-mode:overlay" d="M 420.610565 348.955109 C 420.610565 352.331604 409.263916 355.068939 395.26712 355.068939 C 381.270233 355.068939 369.923584 352.331604 369.923584 348.955109 C 369.923584 345.57843 381.270233 342.841278 395.26712 342.841278 C 409.263916 342.841278 420.610565 345.57843 420.610565 348.955109 Z"/>
                </g>
            </g>
            <path id="path36" fill="#f1b16e" stroke="none" opacity="0.5" style="mix-blend-mode:multiply" d="M 368.694916 523.013977 C 368.694916 523.013977 393.6091 552.383972 423.71933 523.013977 C 423.71933 523.013977 399.397247 535.004761 368.694916 523.013977 Z"/>
            <linearGradient id="linearGradient7" x1="322.611773" y1="53.759502" x2="344.358038" y2="71.22757" gradientUnits="userSpaceOnUse">
                <stop offset="0.11" stop-color="#fdf2a5" stop-opacity="1"/>
                <stop offset="0.17" stop-color="#fcf2a6" stop-opacity="0.96"/>
                <stop offset="0.27" stop-color="#fcf2ab" stop-opacity="0.85"/>
                <stop offset="0.39" stop-color="#fcf2b2" stop-opacity="0.67"/>
                <stop offset="0.55" stop-color="#fbf2bd" stop-opacity="0.42"/>
                <stop offset="0.72" stop-color="#faf2ca" stop-opacity="0.1"/>
                <stop offset="0.77" stop-color="#faf3cf" stop-opacity="0"/>
            </linearGradient>
            <path id="path37" fill="url(#linearGradient7)" stroke="none" opacity="0.4" style="mix-blend-mode:overlay" d="M 351.878204 56.187317 C 330.946106 57.119934 327.896606 71.109131 327.867004 79.028992 C 324.847107 73.714539 323.233521 66.9198 326.164581 59.073914 C 329.214081 50.872803 340.139038 52.042236 351.878204 56.187317 Z"/>
            <linearGradient id="linearGradient8" x1="373.787292" y1="44.285295" x2="441.853544" y2="82.803866" gradientUnits="userSpaceOnUse">
                <stop offset="0.11" stop-color="#fdf2a5" stop-opacity="1"/>
                <stop offset="0.15" stop-color="#fcf2a6" stop-opacity="0.96"/>
                <stop offset="0.22" stop-color="#fcf2ab" stop-opacity="0.85"/>
                <stop offset="0.32" stop-color="#fcf2b2" stop-opacity="0.67"/>
                <stop offset="0.43" stop-color="#fbf2bd" stop-opacity="0.42"/>
                <stop offset="0.55" stop-color="#faf2ca" stop-opacity="0.1"/>
                <stop offset="0.59" stop-color="#faf3cf" stop-opacity="0"/>
            </linearGradient>
            <path id="path38" fill="url(#linearGradient8)" stroke="none" opacity="0.4" style="mix-blend-mode:overlay" d="M 459.52887 91.715576 C 458.507446 91.034607 425.244049 69.095886 400.167053 54.4552 C 383.409546 44.684998 380.167572 53.19696 379.915894 60.169434 C 372.469757 39.977478 383.083862 35.27002 401.6474 47.867737 C 423.512054 62.700745 458.448181 90.827332 459.52887 91.715576 Z"/>
            <linearGradient id="linearGradient9" x1="599.924758" y1="149.523005" x2="567.475601" y2="189.492313" gradientUnits="userSpaceOnUse">
                <stop offset="0.24" stop-color="#fdf2a5" stop-opacity="1"/>
                <stop offset="0.26" stop-color="#fcf2a6" stop-opacity="0.96"/>
                <stop offset="0.3" stop-color="#fcf2ab" stop-opacity="0.85"/>
                <stop offset="0.35" stop-color="#fcf2b2" stop-opacity="0.67"/>
                <stop offset="0.42" stop-color="#fbf2bd" stop-opacity="0.42"/>
                <stop offset="0.49" stop-color="#faf2ca" stop-opacity="0.1"/>
                <stop offset="0.51" stop-color="#faf3cf" stop-opacity="0"/>
            </linearGradient>
            <path id="path39" fill="url(#linearGradient9)" stroke="none" opacity="0.5" style="mix-blend-mode:overlay" d="M 652.166138 246.500427 C 655.94104 252.969513 659.567871 259.527435 663.061462 266.159332 C 576.934998 130.367371 485.035187 96.659851 485.035187 96.659851 L 485.035187 96.659851 C 491.015747 98.465942 496.863129 100.642029 502.503235 102.936523 C 540.030029 118.198975 572.627197 144.075378 599.687927 173.889526 C 619.805725 196.050232 637.110962 220.668396 652.166138 246.500427 Z"/>
        </g>
        <g id="Hat">
            <radialGradient id="radialGradient14" cx="397.517218" cy="177.050783" r="305.572766" fx="397.517218" fy="177.050783" gradientUnits="userSpaceOnUse">
                <stop offset="0.04" stop-color="#fef4d6" stop-opacity="1"/>
                <stop offset="0.11" stop-color="#fef3d4" stop-opacity="1"/>
                <stop offset="1" stop-color="#feedc9" stop-opacity="1"/>
            </radialGradient>
            <path id="path40" fill="url(#radialGradient14)" stroke="none" d="M 792.621277 352.101532 C 792.621277 352.101532 792.517639 352.027527 792.39917 351.953552 C 788.254211 349.214935 731.275757 312.1026 642.751099 280.600891 C 575.928406 256.811737 491.134216 236.220184 397.517212 235.983276 C 303.900238 236.205383 219.106079 256.811737 152.283295 280.600891 C 63.773472 312.117401 6.795018 349.214935 2.635253 351.953552 C 2.516823 352.027527 2.442801 352.086731 2.41321 352.101532 L 2.768478 351.716644 L 17.409088 335.802917 L 121.270103 222.9711 C 123.446167 220.61731 125.030144 217.789886 125.933182 214.710754 L 164.481323 81.642517 C 169.188858 65.388367 180.380264 51.82843 195.464981 44.145447 C 198.011169 42.857483 200.601776 41.584412 203.192383 40.340942 C 255.848206 15.263916 314.706726 5.0495 372.943481 2.606995 C 383.039459 2.177612 393.135406 2 403.17215 2 C 470.513 2.029663 539.082581 13.443054 599.554626 44.145447 C 614.639343 51.81366 625.83075 65.388367 630.538269 81.642517 L 669.086487 214.710754 C 669.989502 217.789886 671.573425 220.61731 673.734802 222.9711 L 777.595764 335.802917 L 792.25116 351.716644 L 792.606445 352.101532 Z"/>
            <radialGradient id="radialGradient15" cx="397.517218" cy="188.153368" r="166.390751" fx="397.517218" fy="188.153368" gradientUnits="userSpaceOnUse">
                <stop offset="1e-05" stop-color="#f3d5b0" stop-opacity="1"/>
                <stop offset="1" stop-color="#eac19c" stop-opacity="1"/>
            </radialGradient>
            <path id="path41" fill="url(#radialGradient15)" stroke="none" opacity="0.7" style="mix-blend-mode:multiply" d="M 631.248901 215.362091 C 530.851868 161.595978 388.235474 158.132019 277.624115 176.902771 C 238.454163 184.630127 198.840164 195.851166 163.785568 215.362091 C 174.14798 208.345276 185.783508 202.720001 197.182175 197.509155 C 227.277573 184.186035 259.23822 175.09671 291.613342 169.352966 C 336.527008 161.048248 382.343689 160.130432 427.879089 161.403503 C 436.450256 161.669952 449.595734 162.73587 458.226166 163.283569 C 462.830017 163.816467 476.345581 165.267273 480.890259 165.800171 C 488.069885 166.969635 496.285767 168.020691 503.421051 169.323425 C 547.920227 177.820587 592.759888 190.906769 631.248901 215.34729 L 631.248901 215.34729 Z"/>
        </g>
        <g id="Sun">
            <linearGradient id="linearGradient10" x1="357.059396" y1="101.523593" x2="431.061831" y2="143.728222" gradientUnits="userSpaceOnUse">
                <stop offset="0.15" stop-color="#fedf33" stop-opacity="1"/>
                <stop offset="1" stop-color="#ffaa22" stop-opacity="1"/>
            </linearGradient>
            <path id="path42" fill="url(#linearGradient10)" stroke="none" d="M 447.922943 132.32959 C 447.922943 137.111084 447.271576 141.729736 445.998505 146.126343 C 433.978119 145.549072 421.410004 145.356628 408.294128 145.593445 C 387.317627 145.252991 367.65863 145.933899 349.435608 147.443878 C 347.925659 142.662415 347.126282 137.570007 347.126282 132.32959 C 347.126282 104.499084 369.671936 81.95343 397.502411 81.95343 C 425.332855 81.95343 447.922943 104.499084 447.922943 132.32959 Z"/>
            <linearGradient id="linearGradient11" x1="382.965429" y1="71.117311" x2="410.307397" y2="42.576264" gradientUnits="userSpaceOnUse">
                <stop offset="0.15" stop-color="#fedf33" stop-opacity="1"/>
                <stop offset="1" stop-color="#ffaa22" stop-opacity="1"/>
            </linearGradient>
            <path id="path43" fill="url(#linearGradient11)" stroke="none" d="M 407.598358 55.928955 C 407.598358 65.093933 403.084869 72.523621 397.517212 72.523621 C 391.949585 72.523621 387.436066 65.093933 387.436066 55.928955 C 387.436066 46.763977 391.949585 39.334351 397.517212 39.334351 C 403.084869 39.334351 407.598358 46.763977 407.598358 55.928955 Z"/>
            <g id="g7">
                <linearGradient id="linearGradient12" x1="302.419871" y1="122.263223" x2="335.6092" y2="122.263223" gradientUnits="userSpaceOnUse">
                    <stop offset="0.15" stop-color="#fedf33" stop-opacity="1"/>
                    <stop offset="1" stop-color="#ffaa22" stop-opacity="1"/>
                </linearGradient>
                <path id="path44" fill="url(#linearGradient12)" stroke="none" d="M 335.609192 122.263184 C 335.609192 127.830933 328.179504 132.34436 319.014526 132.34436 C 309.849579 132.34436 302.419891 127.830933 302.419891 122.263184 C 302.419891 116.695557 309.849579 112.182068 319.014526 112.182068 C 328.179504 112.182068 335.609192 116.695557 335.609192 122.263184 Z"/>
                <linearGradient id="linearGradient13" x1="327.991448" y1="78.286023" x2="357.953626" y2="78.286023" gradientUnits="userSpaceOnUse">
                    <stop offset="0.15" stop-color="#fedf33" stop-opacity="1"/>
                    <stop offset="1" stop-color="#ffaa22" stop-opacity="1"/>
                </linearGradient>
                <path id="path45" fill="url(#linearGradient13)" stroke="none" d="M 348.426941 69.827087 C 356.132446 74.789185 359.935364 82.606445 356.920898 87.287537 C 353.906494 91.968506 345.216309 91.740723 337.510773 86.778625 C 329.805267 81.81665 326.002411 73.999268 329.016815 69.318298 C 332.031219 64.637207 340.721405 64.865051 348.426941 69.827087 Z"/>
                <linearGradient id="linearGradient14" x1="459.425236" y1="122.263223" x2="492.599762" y2="122.263223" gradientUnits="userSpaceOnUse">
                    <stop offset="0.15" stop-color="#fedf33" stop-opacity="1"/>
                    <stop offset="1" stop-color="#ffaa22" stop-opacity="1"/>
                </linearGradient>
                <path id="path46" fill="url(#linearGradient14)" stroke="none" d="M 492.614563 122.263184 C 492.614563 127.830933 485.184906 132.34436 476.019958 132.34436 C 466.854889 132.34436 459.425232 127.830933 459.425232 122.263184 C 459.425232 116.695557 466.854889 112.182068 476.019958 112.182068 C 485.184906 112.182068 492.614563 116.695557 492.614563 122.263184 Z"/>
                <linearGradient id="linearGradient15" x1="437.076556" y1="78.290503" x2="467.038734" y2="78.290503" gradientUnits="userSpaceOnUse">
                    <stop offset="0.15" stop-color="#fedf33" stop-opacity="1"/>
                    <stop offset="1" stop-color="#ffaa22" stop-opacity="1"/>
                </linearGradient>
                <path id="path47" fill="url(#linearGradient15)" stroke="none" d="M 466.019409 69.292908 C 469.033844 73.973877 465.230988 81.791138 457.525391 86.753235 C 449.819916 91.715271 441.12973 91.943115 438.115295 87.262024 C 435.100922 82.581055 438.903717 74.763794 446.609192 69.801697 C 454.314789 64.839539 463.005035 64.611816 466.019409 69.292908 Z"/>
            </g>
        </g>
        <g id="Sunglasses">
            <radialGradient id="radialGradient16" cx="388.690071" cy="294.555342" r="42.884404" fx="388.690071" fy="294.555342" gradientUnits="userSpaceOnUse">
                <stop offset="1e-05" stop-color="#42423b" stop-opacity="1"/>
                <stop offset="1" stop-color="#231f20" stop-opacity="1"/>
            </radialGradient>
            <path id="path48" fill="url(#radialGradient16)" stroke="none" d="M 338.717926 306.750458 C 338.717926 306.750458 390.618805 280.030182 447.523315 306.750458 L 451.860718 290.629486 C 451.860718 290.629486 390.633636 269.060852 333.285034 290.629486"/>
            <g id="g8">
                <radialGradient id="radialGradient17" cx="232.059084" cy="340.428265" r="99.760434" fx="232.059084" fy="340.428265" gradientUnits="userSpaceOnUse">
                    <stop offset="1e-05" stop-color="#42423b" stop-opacity="1"/>
                    <stop offset="1" stop-color="#231f20" stop-opacity="1"/>
                </radialGradient>
                <path id="path49" fill="url(#radialGradient17)" stroke="none" d="M 348.162537 312.731018 C 348.384583 318.519135 348.0737 324.336975 347.511169 329.932617 C 345.867981 346.334869 343.010925 362.914673 335.564789 377.792206 C 335.091064 378.769196 334.60257 379.701813 334.099243 380.619629 C 333.877197 381.019348 333.669952 381.433777 333.447906 381.818695 C 333.151825 382.381226 332.826141 382.914124 332.515289 383.447021 C 332.204407 383.980011 331.878723 384.52774 331.55307 385.045929 C 328.385101 390.138214 324.847107 394.520081 321.087006 398.250488 C 320.820557 398.517029 320.554108 398.783478 320.272827 399.049927 C 320.050812 399.272003 319.813934 399.479279 319.577087 399.701294 C 319.221771 400.041718 318.851685 400.367462 318.496399 400.693085 C 317.963501 401.166809 317.430573 401.625702 316.897644 402.084595 C 316.483154 402.425171 316.068665 402.765625 315.639343 403.091248 C 313.78891 404.556763 311.908905 405.903931 309.984436 407.117737 C 309.688385 407.325012 309.362701 407.502625 309.06662 407.680267 C 308.592896 407.991272 308.0896 408.287262 307.601105 408.568542 C 307.142181 408.834961 306.698059 409.101501 306.224335 409.338257 C 306.135529 409.397522 306.046692 409.456787 305.943115 409.486328 C 305.469391 409.737976 304.995667 409.989685 304.507172 410.226501 C 304.048218 410.463318 303.589325 410.700226 303.130432 410.922302 C 302.034973 411.4552 300.924713 411.943665 299.814453 412.41748 C 299.444366 412.565491 299.07428 412.713501 298.733795 412.861481 C 297.756775 413.246399 296.779785 413.616455 295.802734 413.957001 C 295.32901 414.134644 294.825714 414.297455 294.337158 414.460358 C 293.863495 414.623169 293.360168 414.771179 292.871643 414.93399 C 292.383148 415.096802 291.894623 415.230103 291.406128 415.363342 C 290.917572 415.496521 290.414276 415.644531 289.925781 415.763062 C 289.452057 415.89624 288.94873 416.014618 288.475006 416.147888 C 286.506165 416.621613 284.537292 417.021332 282.598053 417.346985 C 276.336212 418.398041 270.074341 419.182556 263.753296 419.715485 C 257.43219 420.248474 251.1259 420.514923 244.790024 420.514923 C 238.454163 420.514923 232.162689 420.248474 225.856445 419.715485 C 219.550171 419.182556 213.258698 418.398041 207.011642 417.346985 C 202.422577 416.577148 197.715088 415.570618 193.052002 414.179016 C 192.622696 414.045837 192.208206 413.927368 191.778885 413.794098 C 191.364395 413.660919 190.93512 413.52774 190.52063 413.39447 C 189.617599 413.098389 188.699783 412.772766 187.796753 412.447021 C 187.086212 412.180573 186.360825 411.899292 185.679871 411.618042 C 185.191376 411.410767 184.702835 411.218323 184.21434 410.996338 C 183.79985 410.818604 183.385361 410.626221 182.970856 410.448486 C 182.141876 410.06369 181.312881 409.678772 180.498672 409.264343 C 180.143402 409.0867 179.788132 408.909058 179.432816 408.731445 C 178.899918 408.435242 178.366974 408.168884 177.834061 407.85791 C 177.508392 407.665527 177.167892 407.473083 176.842209 407.295471 C 176.042862 406.821716 175.243454 406.348022 174.458878 405.829834 C 174.073975 405.578308 173.674301 405.326569 173.289398 405.06012 C 172.904495 404.793671 172.504822 404.52713 172.119904 404.245972 C 170.861649 403.342957 169.632935 402.395508 168.404282 401.388794 C 168.123001 401.151978 167.841736 400.915161 167.575287 400.663452 C 166.479797 399.701294 165.384354 398.67984 164.318512 397.599213 C 164.052063 397.347504 163.800385 397.081055 163.548752 396.799774 C 163.089844 396.326141 162.645706 395.822784 162.186813 395.319427 C 161.86113 394.949341 161.535461 394.579254 161.194962 394.194336 C 160.869324 393.809448 160.528824 393.394989 160.203156 392.98056 C 159.063309 391.574097 157.967819 390.079041 156.901962 388.509888 C 156.443069 387.858521 156.013748 387.16272 155.569672 386.46698 C 155.229172 385.904449 154.888718 385.327087 154.533401 384.749756 C 154.296585 384.335297 154.059738 383.920837 153.822876 383.491486 C 153.748825 383.373138 153.689651 383.254578 153.615601 383.13623 C 153.363968 382.677307 153.112289 382.218414 152.875427 381.729858 C 151.987259 380.042358 151.143448 378.28064 150.344055 376.415405 C 150.122009 375.91214 149.899963 375.394043 149.692703 374.875885 C 149.470657 374.313416 149.233795 373.750885 149.026566 373.188354 C 148.789703 372.566528 148.552841 371.944824 148.330811 371.32309 C 148.153122 370.849274 147.975494 370.36084 147.812668 369.857574 C 147.738632 369.620667 147.649811 369.383759 147.575821 369.132202 C 147.383362 368.569672 147.205734 368.021942 147.028091 367.444611 C 146.850464 366.896881 146.687592 366.349152 146.52478 365.786621 C 146.228699 364.794739 145.947418 363.773285 145.680969 362.751831 C 145.547745 362.248566 145.41452 361.745209 145.296066 361.227051 C 144.92598 359.791168 144.600311 358.325623 144.289444 356.800842 C 144.126587 356.045837 143.978592 355.276123 143.81572 354.506409 C 143.697311 353.869781 143.578857 353.233246 143.460464 352.581879 C 143.297592 351.649261 143.149597 350.687012 142.98674 349.724823 C 142.853516 348.895844 142.735107 348.081665 142.616653 347.252686 C 141.610031 340.043396 141.017899 332.108765 140.929077 323.31543 C 140.869858 317.8974 136.088318 313.545197 130.240982 313.648834 C 126.318039 313.722839 122.883675 311.23587 122.010277 307.697906 L 116.162895 283.671844 C 115.156273 279.541718 117.954102 275.470764 122.395134 274.508514 C 191.556839 259.645874 259.060577 256.81839 310.162048 264.516174 C 316.157471 265.419189 321.990051 267.462067 327.200836 270.585571 C 342.670471 279.822906 347.585175 296.106689 348.20694 312.745758 Z"/>
                <radialGradient id="radialGradient18" cx="243.531756" cy="383.861581" r="75.541993" fx="243.531756" fy="383.861581" gradientUnits="userSpaceOnUse">
                    <stop offset="1e-05" stop-color="#42423b" stop-opacity="1"/>
                    <stop offset="1" stop-color="#231f20" stop-opacity="1"/>
                </radialGradient>
                <path id="path50" fill="url(#radialGradient18)" stroke="none" opacity="0.5" style="mix-blend-mode:color-burn" d="M 142.572235 347.223053 C 193.185226 357.689087 262.805847 364.557831 340.538757 365.682892 C 328.725586 400.604279 304.847626 413.586914 282.583221 417.332153 C 270.089172 419.434296 257.446991 420.485291 244.790024 420.485291 C 232.133102 420.485291 219.490936 419.434296 207.011642 417.332153 C 180.276627 412.831909 150.003555 400.707916 142.587067 347.223053 Z"/>
                <path id="path51" fill="#0d1212" stroke="none" d="M 333.418304 312.922119 C 333.418304 350.396057 326.268219 397.265106 281.250916 407.087402 C 263.146332 411.037598 241.237213 412.913574 220.941696 410.076721 C 219.890671 409.939514 218.839584 409.771667 217.788559 409.603943 C 209.987152 408.292175 202.46698 406.263733 195.568573 403.320129 C 194.97644 403.076172 194.384308 402.816803 193.792175 402.557556 C 189.513962 400.635803 185.457825 398.348022 181.756973 395.648499 C 177.715607 392.720062 174.088791 389.318909 170.920837 385.39917 C 167.07193 380.610046 163.963242 375.058441 161.772308 368.637268 C 155.095947 349.191071 151.913208 322.546051 156.191437 302.398376 C 156.25061 302.123749 156.309845 301.849335 156.383835 301.574707 C 162.083176 277.76651 191.601257 276.897156 213.140289 275.402496 C 237.491943 273.709473 262.021271 273.73999 286.358124 275.905823 C 288.845093 276.119293 291.332062 276.363373 293.833862 276.62262 C 297.934448 277.06488 301.783295 277.629211 305.336151 278.437592 C 310.665375 279.596771 315.328491 281.243988 319.251404 283.562225 C 319.784302 283.867279 320.302429 284.202759 320.805756 284.538361 C 326.297852 288.198761 330.131927 293.38443 332.011963 300.751129 C 332.056366 300.888458 332.100769 301.025665 332.130371 301.162872 C 332.367218 302.093231 332.559692 303.03891 332.722534 304.045502 C 333.196228 306.729858 333.418304 309.688721 333.418304 312.922119 Z"/>
                <path id="path52" fill="#44352d" stroke="none" opacity="0.5" style="mix-blend-mode:screen" d="M 326.120178 363.286102 C 319.118164 382.178192 305.839478 397.767059 281.250916 402.852264 C 239.445999 411.51593 177.434341 409.762878 161.757492 366.342987 C 156.946381 352.999817 153.9561 336.107056 154.266953 320.547211 C 172.726852 344.321655 214.739044 363.344116 263.620026 367.415161 C 286.535767 369.327545 307.926758 367.69043 326.105408 363.286102 Z"/>
                <path id="path53" fill="#a0978c" stroke="none" opacity="0.5" style="mix-blend-mode:color-dodge" d="M 332.722534 303.167969 L 263.457214 366.941254 L 221.163742 405.874298 L 220.941696 406.081543 L 218.528732 408.302063 C 210.061157 406.910553 201.786026 404.586395 193.910583 401.04834 L 195.553787 399.538361 L 195.568573 399.538361 C 195.568573 399.538361 195.716614 399.390381 195.716614 399.390381 L 235.508286 362.751831 L 316.897644 287.831604 L 320.805756 284.234375 L 321.457092 283.642303 C 327.023193 287.461517 330.768463 292.89447 332.426453 300.66626 C 332.293243 300.429352 332.160004 300.192444 332.011963 299.970459 C 332.056366 300.103729 332.100769 300.236908 332.130371 300.370087 C 332.367218 301.273071 332.559692 302.190979 332.722534 303.167969 Z"/>
                <path id="path54" fill="#a0978c" stroke="none" opacity="0.5" style="mix-blend-mode:color-dodge" d="M 307.156952 278.387024 L 306.860931 278.653473 L 219.861023 358.754974 L 182.956039 392.743652 L 182.867233 392.832458 L 181.623749 393.972351 C 177.537979 390.922852 173.822342 387.384796 170.698792 383.41748 L 171.438965 382.736511 L 171.542603 382.647675 L 203.636459 353.114777 L 287.438812 275.944397 L 287.542389 275.855682 C 290.118225 276.062866 292.694 276.314484 295.269806 276.566223 C 299.518372 277.010284 303.485748 277.587646 307.156952 278.387024 Z"/>
                <radialGradient id="radialGradient19" cx="244.227518" cy="287.269085" r="63.166311" fx="244.227518" fy="287.269085" gradientUnits="userSpaceOnUse">
                    <stop offset="1e-05" stop-color="#42423b" stop-opacity="1"/>
                    <stop offset="1" stop-color="#231f20" stop-opacity="1"/>
                </radialGradient>
                <path id="path55" fill="url(#radialGradient19)" stroke="none" style="mix-blend-mode:multiply" d="M 332.426453 300.66626 C 332.293243 300.429352 332.160004 300.192444 332.011963 299.970459 C 328.681183 294.30072 323.559204 290.451843 316.897644 287.831604 C 310.961456 285.477905 303.7966 284.101105 295.595459 283.242584 C 267.868652 280.385437 239.845688 280.148621 212.059631 282.013885 C 192.40065 283.34613 166.331757 284.190033 156.383835 300.769806 C 156.25061 300.977081 156.132202 301.169525 156.013748 301.376801 C 156.058212 301.095459 156.117386 300.829071 156.191437 300.562531 C 161.417053 276.655029 191.349625 275.811218 213.140289 274.345703 C 239.978912 272.539642 267.054413 272.761719 293.833862 275.544769 C 305.336151 276.743835 314.721558 279.008728 321.457092 283.642303 C 327.023193 287.461517 330.768463 292.89447 332.426453 300.66626 Z"/>
                <radialGradient id="radialGradient20" cx="175.376683" cy="281.02203" r="63.684432" fx="175.376683" fy="281.02203" gradientUnits="userSpaceOnUse">
                    <stop offset="1e-05" stop-color="#ebcb98" stop-opacity="1"/>
                    <stop offset="1" stop-color="#000000" stop-opacity="1"/>
                </radialGradient>
                <path id="path56" fill="url(#radialGradient20)" stroke="none" style="mix-blend-mode:screen" d="M 116.103668 283.642303 L 120.070984 299.970459 L 119.745308 289.519226 C 118.590637 285.27066 121.388512 280.9776 125.962769 279.86734 C 185.058151 265.596802 243.191284 259.941986 291.598572 262.236481 C 243.250504 257.617737 183.44458 261.348236 122.335907 274.478882 C 117.894875 275.441132 115.097046 279.512085 116.103668 283.642303 Z"/>
                <g id="g9" style="mix-blend-mode:color-dodge">
                    <path id="path57" fill="#a49793" stroke="none" d="M 322.567352 371.101013 C 311.84967 396.859039 290.961975 405.267303 264.804321 408.464905 C 249.601151 410.344971 233.76149 410.833405 218.528732 408.302063 C 210.061157 406.910553 201.786026 404.586395 193.910583 401.04834 C 193.71814 400.974365 193.51091 400.885529 193.318451 400.796722 C 189.203094 398.961121 185.265381 396.666595 181.623749 393.972351 C 177.537979 390.922852 173.822342 387.384796 170.698792 383.41748 C 166.583435 378.236267 163.45993 372.314911 161.757492 365.860535 C 161.890717 366.245422 162.023987 366.630341 162.171997 367.000427 C 162.27562 367.266968 162.379257 367.548157 162.497665 367.814697 C 162.527298 367.933044 162.571716 368.051514 162.63089 368.155151 C 162.675308 368.273499 162.719757 368.392029 162.778946 368.510406 C 162.91217 368.865662 163.060211 369.220947 163.223068 369.561401 C 163.282257 369.724304 163.356293 369.887115 163.430298 370.035217 C 163.430298 370.064758 163.445114 370.064758 163.445114 370.079559 C 163.445114 370.094391 163.45993 370.079559 163.45993 370.079559 C 163.504333 370.168396 163.548752 370.272034 163.578339 370.36084 C 163.637558 370.479187 163.681976 370.597748 163.74115 370.701294 C 163.770782 370.775391 163.800385 370.849274 163.844788 370.908569 C 163.904022 371.071381 163.992828 371.21936 164.066833 371.367462 C 166.050537 375.453217 168.581909 379.213257 171.542603 382.632965 C 174.858551 386.481812 178.722275 389.871765 182.956039 392.728821 C 186.479279 395.126984 190.254135 397.155029 194.191849 398.768646 C 194.695175 398.97583 195.198486 399.183105 195.716614 399.375549 C 203.902908 402.647156 212.459305 404.704834 221.163742 405.859497 C 235.478699 407.783997 250.208099 407.28064 264.478638 405.726288 C 287.27594 403.26886 305.054901 397.525116 317.474976 379.672272 C 317.563782 379.539001 317.652588 379.420532 317.741425 379.287354 C 317.845062 379.124542 317.963501 378.97644 318.067108 378.813538 C 318.822083 377.688568 319.547455 376.533936 320.258026 375.319946 C 320.524475 374.861145 320.790955 374.387329 321.057434 373.913696 C 321.323883 373.425171 321.590332 372.936615 321.856812 372.448181 C 321.990051 372.196442 322.12326 371.959534 322.241669 371.708008 C 322.345306 371.500732 322.463715 371.293457 322.567352 371.071381 Z"/>
                </g>
            </g>
            <g id="g10">
                <radialGradient id="radialGradient21" cx="560.355142" cy="341.90861" r="99.760434" fx="560.355142" fy="341.90861" gradientUnits="userSpaceOnUse">
                    <stop offset="1e-05" stop-color="#42423b" stop-opacity="1"/>
                    <stop offset="1" stop-color="#231f20" stop-opacity="1"/>
                </radialGradient>
                <path id="path58" fill="url(#radialGradient21)" stroke="none" d="M 444.266541 314.211365 C 444.044434 319.999481 444.355347 325.817322 444.917877 331.412964 C 446.561035 347.815216 449.418091 364.394989 456.864288 379.272552 C 457.337921 380.249542 457.826447 381.182159 458.329803 382.099945 C 458.551819 382.499695 458.759064 382.914124 458.981171 383.299042 C 459.277161 383.861572 459.602875 384.39447 459.913788 384.927368 C 460.224609 385.460358 460.550323 386.008087 460.875946 386.526276 C 464.043915 391.618561 467.58197 396.000427 471.34201 399.730835 C 471.608459 399.997375 471.874908 400.263824 472.156189 400.530273 C 472.378265 400.75235 472.615082 400.959625 472.85199 401.18161 C 473.207245 401.522064 473.577332 401.847809 473.932617 402.173431 C 474.465515 402.647156 474.998505 403.106049 475.531403 403.564941 C 475.945862 403.905518 476.360382 404.245972 476.789673 404.571594 C 478.640106 406.037109 480.520172 407.384277 482.44458 408.598083 C 482.740692 408.805359 483.066315 408.982971 483.362396 409.160614 C 483.836121 409.471619 484.339478 409.767609 484.827911 410.048889 C 485.286835 410.315308 485.730988 410.581848 486.20462 410.818604 C 486.293457 410.877869 486.382355 410.937134 486.485901 410.966675 C 486.959625 411.218323 487.43335 411.470032 487.921875 411.706848 C 488.380798 411.943665 488.839691 412.180573 489.298584 412.402649 C 490.394043 412.935547 491.504303 413.424011 492.614563 413.897827 C 492.98465 414.045837 493.354736 414.193817 493.69516 414.341827 C 494.672241 414.726746 495.649231 415.096802 496.626312 415.437347 C 497.100037 415.61499 497.603302 415.777802 498.091858 415.940704 C 498.565552 416.103516 499.068848 416.251526 499.557373 416.414337 C 500.045898 416.577148 500.534454 416.710449 501.022888 416.843689 C 501.511444 416.976868 502.014801 417.124878 502.503235 417.243408 C 502.976959 417.376587 503.480316 417.494965 503.954041 417.628235 C 505.922852 418.101959 507.891724 418.501678 509.830963 418.827332 C 516.092773 419.878387 522.354736 420.662903 528.67572 421.195831 C 534.996826 421.728821 541.303101 421.99527 547.638916 421.99527 C 553.974854 421.99527 560.266296 421.728821 566.572632 421.195831 C 572.878906 420.662903 579.170349 419.878387 585.417358 418.827332 C 590.00647 418.057495 594.713989 417.050964 599.377014 415.659363 C 599.806396 415.526184 600.220825 415.407715 600.650085 415.274445 C 601.064636 415.141266 601.493896 415.008087 601.908447 414.874817 C 602.811401 414.578735 603.729248 414.253113 604.632202 413.927368 C 605.342834 413.660919 606.068176 413.379639 606.749207 413.098389 C 607.23761 412.891113 607.726196 412.698669 608.214722 412.476685 C 608.62915 412.29895 609.043701 412.106567 609.45813 411.928833 C 610.28717 411.544037 611.11615 411.159119 611.93042 410.74469 C 612.285645 410.567047 612.64093 410.389404 612.996216 410.211792 C 613.529114 409.915588 614.062073 409.649231 614.594971 409.338257 C 614.920654 409.145874 615.261169 408.95343 615.586792 408.775818 C 616.386169 408.302063 617.185608 407.828369 617.970154 407.310181 C 618.355042 407.058655 618.754761 406.806915 619.139648 406.540466 C 619.524475 406.274017 619.924194 406.007477 620.309082 405.726288 C 621.567383 404.823303 622.796082 403.875854 624.02478 402.869141 C 624.30603 402.632324 624.587341 402.395508 624.85376 402.143799 C 625.949219 401.18161 627.044678 400.160187 628.110535 399.079559 C 628.377014 398.82785 628.628662 398.561371 628.880249 398.280121 C 629.339172 397.806488 629.783325 397.303131 630.242249 396.799774 C 630.567871 396.429688 630.893616 396.059601 631.23407 395.674683 C 631.559692 395.289795 631.900208 394.875336 632.225891 394.460907 C 633.365784 393.054443 634.461182 391.559387 635.5271 389.990234 C 635.986023 389.338867 636.415283 388.643066 636.859375 387.947327 C 637.199829 387.384796 637.540344 386.807434 637.89563 386.230103 C 638.132446 385.815643 638.369324 385.401184 638.60614 384.971832 C 638.680115 384.853455 638.739441 384.734924 638.813416 384.616577 C 639.065063 384.157654 639.316772 383.698761 639.553589 383.210205 C 640.441772 381.522705 641.285583 379.760986 642.085022 377.895752 C 642.307007 377.392487 642.529114 376.87439 642.736389 376.356201 C 642.958374 375.793762 643.195251 375.231232 643.402466 374.668701 C 643.639343 374.046875 643.87616 373.425171 644.098267 372.803436 C 644.275879 372.32962 644.453552 371.841187 644.616333 371.337921 C 644.690369 371.101013 644.779236 370.864105 644.853271 370.612549 C 645.045715 370.050018 645.223328 369.502289 645.40094 368.924957 C 645.578613 368.377228 645.741394 367.829498 645.904236 367.266968 C 646.200317 366.275085 646.481567 365.253632 646.748047 364.232178 C 646.881287 363.728912 647.014465 363.225555 647.132935 362.707397 C 647.503052 361.271484 647.828735 359.805969 648.139587 358.281158 C 648.302368 357.526184 648.4505 356.75647 648.613281 355.986755 C 648.73175 355.350128 648.85022 354.713593 648.968567 354.062225 C 649.131348 353.129608 649.27948 352.167328 649.442261 351.20517 C 649.575562 350.37619 649.693909 349.562012 649.812378 348.733032 C 650.81897 341.523743 651.411133 333.589111 651.5 324.795776 C 651.559143 319.377747 656.340759 315.025543 662.188049 315.129181 C 666.110962 315.203186 669.54541 312.716217 670.418762 309.178253 L 676.266113 285.152191 C 677.272766 281.022064 674.474976 276.951111 670.033936 275.988861 C 600.872192 261.126221 533.368469 258.298706 482.266968 265.996521 C 476.271576 266.899506 470.439026 268.942413 465.22818 272.065918 C 449.758545 281.303253 444.843811 297.587036 444.222076 314.226105 Z"/>
                <radialGradient id="radialGradient22" cx="617.052347" cy="282.517178" r="63.684432" fx="617.052347" fy="282.517178" gradientUnits="userSpaceOnUse">
                    <stop offset="1e-05" stop-color="#ebcb98" stop-opacity="1"/>
                    <stop offset="1" stop-color="#000000" stop-opacity="1"/>
                </radialGradient>
                <path id="path59" fill="url(#radialGradient22)" stroke="none" style="mix-blend-mode:screen" d="M 676.310547 285.13739 L 672.343262 301.465546 L 672.668884 291.014404 C 673.823608 286.765808 671.025757 282.472778 666.451416 281.362518 C 607.356079 267.09198 549.2229 261.437042 500.815704 263.731567 C 549.163757 259.112885 608.969727 262.843384 670.078308 275.97403 C 674.519348 276.93631 677.3172 281.007263 676.310547 285.13739 Z"/>
                <radialGradient id="radialGradient23" cx="540.674847" cy="385.341925" r="75.541993" fx="540.674847" fy="385.341925" gradientUnits="userSpaceOnUse">
                    <stop offset="1e-05" stop-color="#42423b" stop-opacity="1"/>
                    <stop offset="1" stop-color="#231f20" stop-opacity="1"/>
                </radialGradient>
                <path id="path60" fill="url(#radialGradient23)" stroke="none" opacity="0.5" style="mix-blend-mode:color-burn" d="M 649.856812 348.7034 C 599.243835 359.169434 529.623169 366.038177 451.890259 367.163239 C 463.703461 402.084595 487.581421 415.067261 509.845795 418.8125 C 522.339905 420.914642 534.981995 421.965637 547.638916 421.965637 C 560.266296 421.965637 572.938049 420.914642 585.417358 418.8125 C 612.152405 414.312256 642.425476 402.188232 649.84198 348.7034 Z"/>
                <path id="path61" fill="#0d1212" stroke="none" d="M 630.656677 367.340881 C 628.46582 373.573242 625.342285 378.961639 621.508179 383.595123 C 618.34021 387.399628 614.698608 390.700745 610.672058 393.543091 C 606.971191 396.163239 602.915039 398.383759 598.636841 400.263824 C 591.249939 403.505798 583.108032 405.726288 574.640503 407.102997 C 556.313843 410.048889 536.403198 409.0867 519.023926 406.140839 C 516.344543 405.681824 513.724304 405.19339 511.178131 404.645691 C 504.960663 403.328125 499.468567 401.329712 494.613068 398.753845 C 490.36441 396.503784 486.619171 393.839081 483.303223 390.804382 C 479.528351 387.340363 476.315948 383.43222 473.592163 379.168915 C 461.616119 360.486877 459.010712 335.217468 459.010712 313.263916 C 459.010712 308.956177 459.440063 305.181213 460.298615 301.835632 C 462.326752 293.812256 466.75296 288.408966 473.177612 284.767303 C 477.085754 282.517242 481.748871 280.918427 487.092896 279.778534 C 490.64566 279.008728 494.494629 278.446289 498.595215 278.016937 C 501.082184 277.765289 503.583954 277.528381 506.070923 277.321198 C 530.407776 275.233856 554.937134 275.189514 579.288696 276.832672 C 580.946716 276.93631 582.66394 277.054657 584.410767 277.158295 C 590.879822 277.587646 597.807861 278.120544 604.43988 279.275177 C 609.843079 280.222626 615.039063 281.584595 619.642944 283.657043 C 623.595398 285.433472 627.089111 287.727966 629.886902 290.733032 C 632.921692 293.945435 635.12738 297.986755 636.23761 303.049591 C 640.501038 322.590088 637.333069 348.466492 630.656677 367.340881 Z"/>
                <path id="path62" fill="#44352d" stroke="none" opacity="0.5" style="mix-blend-mode:screen" d="M 466.308807 363.302795 C 473.276215 381.547882 486.489105 396.602875 510.955933 401.513947 C 552.553833 409.88092 614.258362 408.187866 629.857605 366.255005 C 634.644897 353.368774 637.620422 337.054504 637.311035 322.027557 C 618.942627 344.987823 577.138428 363.358795 528.499512 367.290436 C 505.697266 369.13736 484.412201 367.556274 466.323547 363.302795 Z"/>
                <path id="path63" fill="#a0978c" stroke="none" opacity="0.5" style="mix-blend-mode:color-dodge" d="M 634.076294 300.222107 L 519.023926 406.140839 C 516.344543 405.681824 513.724304 405.19339 511.178131 404.645691 C 504.960663 403.328125 499.468567 401.329712 494.613068 398.753845 L 619.642944 283.657043 C 623.595398 285.433472 627.089111 287.727966 629.886902 290.733032 C 631.737305 293.412537 633.158508 296.550873 634.076294 300.222107 Z"/>
                <path id="path64" fill="#a0978c" stroke="none" opacity="0.5" style="mix-blend-mode:color-dodge" d="M 604.43988 279.275177 L 483.303223 390.804382 C 479.528351 387.340363 476.315948 383.43222 473.592163 379.168915 L 584.410767 277.158295 C 590.879822 277.587646 597.807861 278.120544 604.43988 279.275177 Z"/>
                <radialGradient id="radialGradient24" cx="537.988909" cy="288.74943" r="63.455274" fx="537.988909" fy="288.74943" gradientUnits="userSpaceOnUse">
                    <stop offset="1e-05" stop-color="#42423b" stop-opacity="1"/>
                    <stop offset="1" stop-color="#231f20" stop-opacity="1"/>
                </radialGradient>
                <path id="path65" fill="url(#radialGradient24)" stroke="none" style="mix-blend-mode:multiply" d="M 459.987793 302.131805 C 466.175629 290.881134 479.069458 286.558533 496.818756 284.708099 C 524.545593 281.850952 552.568542 281.614136 580.354614 283.479401 C 600.250427 284.826477 626.704224 285.67038 636.38562 302.842346 C 636.341248 302.561066 636.281982 302.294617 636.222839 302.028076 C 630.997131 278.120544 601.049805 277.276764 579.273987 275.811218 C 552.435364 273.990417 525.359741 274.227234 498.580383 276.995483 C 477.603821 279.171631 463.673828 284.930206 459.987793 302.116974 Z"/>
                <g id="g11" style="mix-blend-mode:color-dodge">
                    <path id="path66" fill="#a49793" stroke="none" d="M 469.743195 372.344452 C 477.559479 386.230103 490.2164 396.947784 505.167847 400.929993 C 512.688049 402.943237 520.504272 404.038696 528.216797 404.926849 C 551.339783 407.369446 575.558289 406.99939 597.467407 398.517029 C 610.109497 393.602264 621.493347 384.720184 627.977295 372.640625 C 629.028381 370.953003 629.753723 369.117401 630.656677 367.326141 C 627.962463 374.80188 623.787903 381.774231 618.103394 387.369995 C 595.02478 409.663971 558.10498 411.18866 527.891174 407.635925 C 501.674255 404.645691 482.059692 397.362305 469.743195 372.32962 L 469.743195 372.32962 Z"/>
                </g>
            </g>
        </g>
    </g>
</svg>
