<svg width="1000" height="1000" viewBox="0 0 1000 1000" fill="none" xmlns="http://www.w3.org/2000/svg">
<g id="Back" clip-path="url(#clip0_98_47)">
<g id="Sunny_HumanBody_back 1">
<path id="ear-left-back" d="M462.72 105.31C456.22 108.93 450.94 93.17 450.28 88.38C449.5 82.59 449.55 69.73 457.79 75.36L462.72 105.31Z" fill="#949BA7"/>
<path id="ear-right-back" d="M537.29 105.31C543.79 108.93 549.07 93.17 549.73 88.38C550.51 82.59 550.46 69.73 542.22 75.36L537.29 105.31Z" fill="#949BA7"/>
<path id="scalp" d="M498.47 43.7402C484.42 43.8302 473.64 46.0002 462.49 48.4302C462.89 46.5502 463.47 44.6602 464.34 42.7202C468.06 34.3202 474.6 28.3202 482.31 24.7902V24.7202C486.99 22.5902 492.09 21.3802 497.25 21.0802C502.64 20.7502 508.11 21.4202 513.24 23.1002V23.1702C522.69 26.3102 530.94 32.8502 535.32 42.7202C536.23 44.7802 536.84 46.8002 537.25 48.8302C525.22 46.2102 513.82 43.7402 498.61 43.7402H498.47Z" fill="#949BA7"/>
<path id="head-back" d="M461.64 62.5198C461.64 58.8798 461.57 55.5098 461.91 52.1998C473.35 49.6998 484.24 47.3798 498.47 47.2998H498.63C513.54 47.2998 524.8 49.7598 536.73 52.3698C537.09 52.4398 537.44 52.5298 537.8 52.5998C538.16 56.2498 538.04 59.9798 538.04 63.9298C538.04 74.3798 536.8 84.7798 535.05 95.0798C533.54 103.92 529.99 112.08 528.14 120.81C519.21 117.55 509.99 115.05 498.61 115.05H498.45C488.26 115.15 479.78 117.27 471.65 120.11C469.8 111.91 466.22 103.99 464.68 95.6998C462.66 84.7698 461.62 73.6398 461.62 62.5198H461.64Z" fill="#949BA7"/>
<path id="neck-back" d="M467 154.01C473.1 147.7 473.13 136.45 472.81 128.32C472.75 126.73 472.58 125.16 472.34 123.61C480.33 120.8 488.6 118.69 498.47 118.59C509.6 118.59 518.7 121.11 527.56 124.36C526.47 133.03 527.12 146.35 532.09 152.92C528.42 156.2 513.85 168.24 498.9 168.06C485.3 168.24 472.03 158.25 467 154V154.01Z" fill="#949BA7"/>
<g id="fingers-left">
<path id="thumb-finger-left" d="M267.33 469.76C270.77 467.39 278.72 465.28 283.32 462.64C284.49 461.96 285.61 461.19 286.69 460.38L289.63 472.24C286.28 473.24 281.97 476.11 279.08 476.7C273.52 477.85 259.55 475.12 267.32 469.76H267.33Z" fill="#949BA7"/>
<path id="index-finger-left" d="M295.93 502.23C290.13 510.03 285 519.43 280.22 527.93C273.82 532.79 270.74 528.07 272.54 521.19C274.74 512.73 284.17 501.79 289.88 491.79C291.7 494.12 294.39 496.94 298.14 499.34C297.26 500.25 296.51 501.44 295.92 502.23H295.93Z" fill="#949BA7"/>
<path id="middle-finger-left" d="M312.43 504.39C308.79 512.07 301.38 535.39 299.44 539.46C297.54 543.74 291.74 543.04 290.54 538.83C289.12 533.78 299.79 510.16 302.38 501.64C303.3 502.05 304.27 502.44 305.28 502.78C307.57 503.56 309.96 504.1 312.43 504.39Z" fill="#949BA7"/>
<path id="ring-finger-left" d="M317.11 504.68C319.78 504.68 322.55 504.42 325.41 503.9C324.24 508.19 324.22 515.94 323.97 517.75C323.3 522.46 322.31 532.95 320.7 536.66C318.07 542.74 311.55 541.75 311.63 535.35C313.51 526.51 314.91 517.3 315.45 508.28C315.48 507.8 315.65 506.16 315.59 504.66C316.09 504.67 316.59 504.69 317.1 504.69L317.11 504.68Z" fill="#949BA7"/>
<path id="pinky-finger-left" d="M338.53 503.4C338.7 507.62 344.3 532.31 334.31 528.87C330.94 527.72 331.99 509.89 328.98 503.13C332.06 502.38 335.26 501.32 338.55 499.99C338.49 501.07 338.49 502.21 338.54 503.4H338.53Z" fill="#949BA7"/>
</g>
<path id="hand-left" d="M314.98 443.64L345.83 457.14C344.89 461.94 345.03 466.21 344.2 474.38C343.32 482.97 340.06 488.01 338.91 495.97C326.5 501.36 315.61 502.52 306.5 499.44C300.64 497.46 296.56 494.02 293.93 491.05C293.03 490.04 292.31 489.09 291.76 488.28C292.81 486.1 293.61 484 294.02 482C295.24 476.14 294.76 473.39 293.35 472.38L289.78 457.99C291.36 456.74 292.92 455.52 294.53 454.56C300.1 451.23 307.32 449.31 312.47 446.5C313.31 446.05 314.15 445.02 314.99 443.63L314.98 443.64Z" fill="#949BA7"/>
<path id="arm-left-lower" d="M393.49 339.41C389.74 351.72 388.88 365.23 384.51 377.93C376.51 401.19 360.41 421.6 350.36 443.96C348.58 447.94 347.43 450.98 346.66 453.63L316.58 440.47C319.42 434.14 321.91 424.83 322.83 421.25C329.91 393.98 330.59 361.22 343.8 336.24C346.09 331.9 349.47 327.78 352.2 323.55L393.48 339.41H393.49Z" fill="#949BA7"/>
<path id="arm-left-upper" d="M414.14 284.73V284.76C413 292.81 410.44 301.15 407.64 308.59C404.14 317.87 397.93 327 394.6 336.04L354.03 320.45C354.74 319.14 355.34 317.81 355.79 316.46C359.46 305.51 363.2 292.41 365.8 280.89C368.63 268.37 371.13 256.17 371.71 243.26C371.78 241.57 371.85 239.89 371.94 238.2C384.83 237.67 395.58 235.5 404.14 231.67L414.13 284.74L414.14 284.73Z" fill="#949BA7"/>
<path id="shoulder-left-back" d="M372.15 234.65C372.53 227.84 373.23 221.07 375.06 214.52C379.45 198.9 392.29 186.25 408.1 182.32C413.02 181.1 417.85 179.72 422.59 178.11C424.95 186.51 427.91 203.66 418 216.75C409.7 227.72 394.35 233.71 372.15 234.65Z" fill="#949BA7"/>
<path id="foot-left-heel" d="M428.64 931.35C429.49 944.53 426.42 954.78 404.76 952.96C404.36 952.92 403.96 952.87 403.55 952.85C392.18 951.7 391.59 945.16 384.06 941.52C378.63 938.89 373.19 941.99 367.94 935.48C367.07 934.4 366.49 933.26 366.18 932.11C364.91 927.6 367.69 922.98 371.92 920.25C374.82 918.39 378.27 918.19 380.95 915.81C381.11 915.67 381.48 915.21 382 914.53C382.07 914.43 382.16 914.33 382.23 914.22C382.32 914.11 382.41 913.99 382.51 913.85C382.68 913.62 382.85 913.38 383.04 913.11C386.03 908.97 389.69 903.67 391.43 900.57C391.64 899.56 391.7 898.38 391.7 897.14L426.37 899.7C426.34 900.2 426.3 900.72 426.26 901.28V901.38C426.23 901.68 426.2 901.98 426.19 902.29C426.16 902.73 426.13 903.17 426.12 903.63C425.78 912.37 428.1 922.52 428.65 931.35H428.64Z" fill="#949BA7"/>
<path id="leg-left-back-lower" d="M453.15 715.35C453.79 733.97 456.04 745.97 453.28 762.36C453.28 762.36 452.14 771.87 450.52 777.3C443.98 799.32 432.28 829.56 427.8 856.18C427.8 856.21 427.8 856.24 427.79 856.27C426.58 864.32 425.93 872.33 426.14 880.25C426.14 880.52 426.17 880.79 426.18 881.06C426.24 881.9 426.29 882.69 426.35 883.42C426.76 889.18 426.85 891.71 426.59 896.16L391.55 893.57C391.48 891.92 391.42 890.3 391.59 888.88C393.31 874.08 394.94 863.9 394.42 848.27C393.5 820.22 388.98 791.27 389.57 762.83C389.58 756.28 389.88 749.77 390.55 743.31C392.75 722.09 401.45 703.04 406.51 682.45L455.21 695.32C453.52 700.22 452.78 705.13 453.13 715.35H453.15Z" fill="#949BA7"/>
<path id="leg-left-back-upper" d="M496.81 513.46C495.69 519.47 495.96 529.51 495.5 533.26C491.92 562.91 481.26 588.15 474.79 616.59C470.03 637.61 468.9 659.93 461.31 680.18C459.38 685.33 457.77 688.87 456.49 691.98L407.35 679C408.36 674.48 409.17 669.87 409.68 665.14C413.05 633.72 405.22 607.21 403.07 576.62C401.12 549.01 403.65 520.75 408.59 492.96C415.44 505.14 425.48 517.38 439.75 523.18C456.3 529.92 475.47 526.63 496.81 513.46Z" fill="#949BA7"/>
<path id="buttocks" d="M590.26 486.64C583.71 499.72 573.53 513.81 558.56 519.9C542.14 526.58 522.71 522.54 500.8 507.93L499.82 507.26L498.82 507.93C476.93 522.54 457.5 526.57 441.09 519.9C426.32 513.89 416.21 500.08 409.63 487.18C412.91 469.87 417.08 452.82 421.61 436.25C423.86 428.05 427.85 418.2 430.68 408.94L489.93 423.77C492.87 424.51 495.9 424.88 498.91 424.88C501.92 424.88 504.95 424.51 507.89 423.77L569.15 408.45C571.99 417.85 576.07 427.91 578.36 436.26C582.85 452.66 586.97 469.54 590.24 486.65L590.26 486.64Z" fill="#949BA7"/>
<path id="leg-right-back-upper" d="M592.54 678.46L543.31 691.47C542.06 688.47 540.52 685.04 538.7 680.18C531.09 659.94 529.99 637.62 525.21 616.59C518.76 588.14 508.08 562.91 504.5 533.26C504.06 529.56 504.32 519.74 503.25 513.71C517.24 522.28 530.29 526.58 542.3 526.58C548.46 526.58 554.33 525.46 559.9 523.18C574.36 517.29 584.49 504.8 591.34 492.46C596.33 520.41 598.9 548.85 596.94 576.62C594.78 607.21 586.96 633.72 590.33 665.14C590.81 669.67 591.58 674.11 592.53 678.46H592.54Z" fill="#949BA7"/>
<path id="leg-right-back-lower" d="M573.39 866.07C570.62 835.89 556.06 800.29 549.05 773.65C548 769.64 546.73 762.36 546.73 762.36C543.96 745.97 546.22 733.97 546.86 715.35C547.22 704.77 546.42 699.88 544.6 694.81L593.35 681.93C598.4 702.71 607.22 721.92 609.47 743.31C610.38 752.14 610.58 761.09 610.32 770.09C610.33 770.15 610.33 770.22 610.32 770.29C610.04 800.65 604.76 831.3 604.39 861.64V861.73C604.43 864 604.53 866.28 604.66 868.54C605.11 875.9 607.87 883.48 608.3 890.7C608.31 891 608.31 891.31 608.29 891.62C608.33 892.23 608.32 892.84 608.28 893.43L572.81 896.05C572.43 894.2 572.1 892.42 572.11 890.7C572.14 887.97 573.7 884.84 573.82 882.01C573.98 878.37 573.93 874.7 573.73 871.02C573.7 870.21 573.64 869.39 573.57 868.56C573.53 867.83 573.47 867.11 573.41 866.38C573.4 866.27 573.38 866.17 573.38 866.05L573.39 866.07Z" fill="#949BA7"/>
<path id="foot-right-heel" d="M633.34 931.59C631.93 939.18 621.36 938.8 615.73 941.5C612.92 942.85 610.54 946.92 607.64 948.84C604.47 950.94 600.01 952.42 595.3 952.98C585.62 954.16 574.87 951.5 571.96 942.47C570.77 938.76 570.68 934.59 571.09 930.24C571.9 921.5 574.67 912.07 574.42 904.15C574.39 903.11 574.09 901.96 573.69 900.75C573.63 900.35 573.58 899.95 573.51 899.56L607.77 897.03C607.68 897.51 607.63 897.98 607.61 898.41C608.09 900.66 615.22 910.78 619.07 915.99C623.48 919.56 631.37 918.59 633.13 926.57C633.57 928.55 633.61 930.21 633.34 931.59Z" fill="#949BA7"/>
<path id="shoulder-right-back" d="M579.87 216.77C569.71 203.35 573.09 185.6 575.45 177.45C580.81 179.34 586.3 180.93 591.9 182.33C607.71 186.25 620.54 198.91 624.95 214.53C626.8 221.1 627.48 227.91 627.86 234.73C604.53 234.1 588.44 228.09 579.87 216.78V216.77Z" fill="#949BA7"/>
<path id="arm-right-upper" d="M645.62 319.75L605.13 335.32C601.73 326.52 595.78 317.64 592.35 308.59C589.75 301.67 587.35 294 586.11 286.48V286.45L593.91 231.76C602.91 235.73 614.3 237.9 628.04 238.26C628.13 239.92 628.2 241.59 628.27 243.25C628.87 256.16 631.35 268.35 634.2 280.88C636.8 292.39 640.54 305.5 644.21 316.45C644.58 317.56 645.06 318.67 645.62 319.75Z" fill="#949BA7"/>
<path id="arm-right-lower" d="M683.08 439.67L653.1 452.81C652.35 450.36 651.25 447.55 649.65 443.97C639.6 421.61 623.51 401.2 615.5 377.94C611.04 364.98 610.24 351.19 606.29 338.69L647.39 322.88C650.18 327.34 653.8 331.69 656.2 336.24C669.41 361.22 670.09 393.98 677.17 421.25C678.07 424.68 680.38 433.38 683.08 439.67Z" fill="#949BA7"/>
<path id="hand-right" d="M661.21 496.92C660.2 488.4 656.73 483.3 655.82 474.39C654.92 465.73 655.14 461.45 654.01 456.28L684.6 442.89C685.57 444.67 686.56 445.97 687.54 446.51C692.67 449.32 699.91 451.24 705.48 454.57C707.07 455.52 708.61 456.72 710.19 457.95L706.55 472.46C705.21 473.54 704.8 476.3 706 482C706.28 483.38 706.75 484.81 707.36 486.28C706.05 488.63 701.2 496.12 691.37 499.44C682.8 502.34 672.69 501.49 661.2 496.91L661.21 496.92Z" fill="#949BA7"/>
<g id="fingers-right">
<path id="pinky-finger-right" d="M661.48 500.83C664.69 502.04 667.82 502.96 670.85 503.6C668.06 510.68 668.99 527.75 665.7 528.88C655.71 532.32 661.31 507.63 661.46 503.41C661.49 502.51 661.5 501.66 661.47 500.84L661.48 500.83Z" fill="#949BA7"/>
<path id="ring-finger-right" d="M684.55 508.27C685.08 517.28 686.5 526.49 688.37 535.34C688.44 541.74 681.93 542.73 679.3 536.65C677.69 532.94 676.68 522.45 676.04 517.74C675.78 515.98 675.74 508.59 674.68 504.25C676.74 504.53 678.76 504.68 680.74 504.68C681.99 504.68 683.21 504.62 684.41 504.51C684.34 506.05 684.52 507.78 684.55 508.28V508.27Z" fill="#949BA7"/>
<path id="middle-finger-right" d="M709.47 538.84C708.28 543.05 702.46 543.74 700.56 539.47C698.6 535.35 691.02 511.48 687.42 504.12C689.2 503.81 690.9 503.37 692.58 502.8C694.3 502.22 695.89 501.52 697.34 500.75C699.37 508.36 710.94 533.62 709.47 538.85V538.84Z" fill="#949BA7"/>
<path id="index-finger-right" d="M719.79 527.94C715.01 519.44 709.87 510.04 704.07 502.24C703.29 501.2 702.21 499.4 700.91 498.56C704.93 495.7 707.61 492.45 709.18 490.13C714.74 500.56 725.13 512.26 727.46 521.21C729.25 528.09 726.17 532.81 719.78 527.95L719.79 527.94Z" fill="#949BA7"/>
<path id="thumb-finger-right" d="M720.92 476.7C718.01 476.1 713.66 473.19 710.29 472.21L713.26 460.34C714.37 461.16 715.51 461.96 716.7 462.64C721.31 465.28 729.24 467.39 732.68 469.76C740.46 475.12 726.48 477.85 720.92 476.7Z" fill="#949BA7"/>
</g>
<path id="foot-left-sole" d="M359.36 943.32C358.8 944.11 358.96 945.2 359.71 945.81C368.34 952.74 376.97 959.68 385.61 966.61C391.58 971.4 398.84 980 407.36 978.91C410.74 978.48 414 975.85 414.77 972.47C415.62 968.75 412.73 965.08 410.01 962.88C405.52 959.25 399.44 957.87 394.17 955.75C389.36 953.82 384.55 951.89 379.73 949.96C373.67 947.53 367.61 945.1 361.55 942.67C360.76 942.35 359.86 942.62 359.36 943.32Z" fill="#949BA7"/>
<path id="foot-right-sole" d="M645.76 943.32C646.32 944.11 646.16 945.2 645.41 945.81C636.78 952.74 628.15 959.68 619.51 966.61C613.54 971.4 606.28 980 597.76 978.91C594.38 978.48 591.12 975.85 590.35 972.47C589.5 968.75 592.39 965.08 595.11 962.88C599.6 959.25 605.68 957.87 610.95 955.75C615.76 953.82 620.57 951.89 625.39 949.96C631.45 947.53 637.51 945.1 643.57 942.67C644.36 942.35 645.26 942.62 645.76 943.32Z" fill="#949BA7"/>
<path id="back-lower" d="M566.24 395.42C566.58 398.41 567.28 401.65 568.19 405.02L507.05 420.33C501.75 421.65 496.13 421.65 490.82 420.33L431.71 405.53C432.69 401.98 433.43 398.56 433.79 395.42C434.9 385.48 435.33 371.27 435.87 360.88C436.03 357.85 435.88 354.3 435.49 350.39C450.94 347.35 486.4 340.67 499.93 340.4C513.56 340.67 549.17 347.39 564.57 350.41C564.17 354.32 564.03 357.86 564.19 360.89C564.73 371.28 565.16 385.5 566.27 395.43L566.24 395.42Z" fill="#949BA7"/>
<path id="back-upper" d="M590.55 230.13L582.89 283.91C577.64 294.54 571.8 312.54 568.05 329.47L567.13 333.88C566.21 338.4 565.47 342.78 564.96 346.86C549.32 343.78 513.98 337.12 499.92 336.84C485.96 337.12 450.78 343.75 435.08 346.83C434.51 342.32 433.66 337.46 432.61 332.44L431.87 328.97C428.29 313.01 422.89 296.17 417.91 285.5L407.48 230.04C412.98 227.11 417.45 223.4 420.84 218.89C431.86 204.33 428.57 185.85 426 176.93C433.53 174.17 440.83 170.82 447.82 166.58C453.11 163.38 459.38 160.44 464.32 156.42C469.34 160.76 483.37 171.62 498.45 171.62H499.37C515.75 171.62 530.86 158.88 534.6 155.5C539.69 159.99 546.51 163.13 552.21 166.59C558.59 170.46 565.23 173.6 572.08 176.21C569.48 184.84 565.71 203.93 577.03 218.9C580.46 223.45 584.98 227.19 590.55 230.13Z" fill="#949BA7"/>
</g>
</g>
<defs>
<clipPath id="clip0_98_47">
<rect width="1000" height="1000" fill="white"/>
</clipPath>
</defs>
</svg>
