<svg width="1000" height="1000" viewBox="0 0 1000 1000" fill="none" xmlns="http://www.w3.org/2000/svg">
<g id="Front" clip-path="url(#clip0_98_2)">
<g id="Sunny_HumanBody_front 1">
<path id="ear-right-front" d="M461.67 106.92L456.74 76.9701C448.51 71.3401 448.45 84.2101 449.23 89.9901C449.88 94.7801 455.17 110.55 461.67 106.92Z" fill="#949BA7"/>
<path id="neck-front" d="M497.48 169.82C503.65 170.12 509.92 169.15 515.66 167.11C519.5 165.74 523.18 163.63 526.6 161.43C527.16 161.07 534.4 155.81 534.32 155.73C528.31 149.6 527.57 134.73 528.82 125.52C528.73 126.18 525.85 127.74 525.27 128.15C524 129.03 522.7 129.87 521.37 130.65C518.8 132.16 516.08 133.47 513.25 134.41C506.1 136.79 497.77 137.04 490.43 135.42C486.88 134.64 483.49 133.28 480.29 131.57C478.66 130.7 477.08 129.73 475.55 128.7C474.83 128.22 471.31 126.34 471.2 125.53C472.45 134.74 471.71 149.61 465.7 155.74C465.62 155.83 473.1 161.23 473.68 161.6C477.5 164.04 481.57 166.16 485.86 167.64C489.59 168.93 493.52 169.64 497.49 169.83L497.48 169.82Z" fill="#949BA7"/>
<path id="chest" d="M417.05 224.82C417.05 224.82 427.8 313.59 431.16 330.85L488.53 316.03C499.67 313.25 510.4 315.75 521.19 318.54C529.52 320.69 537.85 322.84 546.18 325C547.54 325.35 568.88 330.64 568.84 330.85C572.2 313.59 582.95 224.82 582.95 224.82C575.68 217.64 572.58 209.19 571.8 201.22C570.93 192.25 573 183.89 575.41 178.62C567.8 175.85 560.46 172.46 553.4 168.2C548.14 165.02 541.93 162.09 537 158.14C536.94 158.09 531.26 162.63 530.79 162.95C527.66 165.14 524.36 167.11 520.91 168.75C511.87 173.04 501.09 174.42 491.23 172.73C482.74 171.28 474.86 167.08 467.95 162.06C466.25 160.82 464.59 159.51 462.99 158.14C458.06 162.09 451.84 165.02 446.59 168.2C439.54 172.46 432.19 175.85 424.58 178.62C429.14 188.57 432.48 209.57 417.04 224.82H417.05Z" fill="#949BA7"/>
<path id="abdomen" d="M432.56 397.01C432.2 400.18 431.45 403.61 430.46 407.17L489.38 421.93C492.85 422.79 496.44 423.08 500 422.82C503.55 423.08 507.15 422.79 510.62 421.93L569.54 407.17C568.54 403.6 567.79 400.18 567.44 397.01C566.35 387.09 565.9 372.87 565.38 362.48C565.01 355.2 566.35 344.92 568.64 333.99L510.63 319.48C507.16 318.61 503.57 318.32 500.01 318.58C496.46 318.31 492.86 318.61 489.39 319.48L431.38 333.99C433.67 344.92 435 355.2 434.64 362.48C434.11 372.87 433.67 387.09 432.58 397.01H432.56Z" fill="#949BA7"/>
<path id="leg-right-front-lower" d="M405.31 684.13C400.24 704.69 391.54 723.73 389.33 744.93C385.04 786.2 396.59 830.08 394.12 870.16C393.67 877.52 390.91 885.1 390.48 892.34C390.42 893.26 390.65 894.22 390.86 895.25L425.94 897.84C426.32 895.92 426.68 894.09 426.66 892.32C426.63 889.59 425.07 886.46 424.95 883.63C423.51 847.69 439.61 809.78 449.27 776C455.92 752.73 452.68 739.84 451.91 716.96C451.55 706.78 452.28 701.88 453.97 696.99L405.28 684.12L405.31 684.13Z" fill="#949BA7"/>
<path id="leg-right-front-upper" d="M488.13 507.19C470.86 484.03 436.36 452.3 420.35 438.05C408.07 482.96 398.56 531.55 401.86 578.24C404.01 608.83 411.84 635.34 408.47 666.76C407.96 671.51 407.15 676.13 406.12 680.66L455.26 693.64C456.54 690.51 458.16 686.96 460.09 681.8C467.68 661.56 468.79 639.24 473.57 618.21C480.04 589.76 490.7 564.53 494.28 534.88C494.81 530.43 494.32 517.11 496.34 512.22C493.08 511.69 490.17 509.93 488.12 507.19H488.13Z" fill="#949BA7"/>
<path id="ear-left-front" d="M550.77 89.9898C551.55 84.1998 551.5 71.3398 543.26 76.9698L538.33 106.92C544.83 110.54 550.11 94.7798 550.77 89.9898Z" fill="#949BA7"/>
<path id="face" d="M463.65 97.3099C464.53 102.11 465.6 106.89 466.86 111.61C467.61 114.44 468.92 117.11 469.87 119.85C470.57 121.86 475.95 124.67 477.71 125.84C480.41 127.63 483.25 129.22 486.27 130.4C502.29 136.69 517.81 130.28 530.12 119.85C531.07 117.11 532.38 114.43 533.13 111.6C534.4 106.88 535.46 102.1 536.34 97.2999C538.36 86.3699 539.4 75.2399 539.4 64.1199C539.4 57.0299 539.66 50.9699 536.7 44.3199C529.63 28.3699 511.51 21.2199 494.95 22.7999C481.63 24.0699 468.83 31.8599 463.29 44.3199C460.33 50.9699 460.59 57.0299 460.59 64.1199C460.59 75.2399 461.63 86.3699 463.65 97.2999V97.3099Z" fill="#949BA7"/>
<path id="leg-left-front-lower" d="M575.031 883.63C574.921 886.46 573.35 889.59 573.32 892.32C573.31 894.08 573.66 895.92 574.04 897.84L609.12 895.25C609.33 894.21 609.56 893.26 609.5 892.34C609.07 885.1 606.32 877.53 605.86 870.16C603.39 830.09 614.941 786.2 610.651 744.93C608.451 723.73 599.75 704.69 594.67 684.13L545.98 697C547.67 701.89 548.4 706.79 548.04 716.97C547.27 739.84 544.03 752.74 550.68 776.01C560.35 809.79 576.44 847.7 575 883.64L575.031 883.63Z" fill="#949BA7"/>
<path id="leg-left-front-upper" d="M591.53 666.76C588.16 635.34 595.99 608.83 598.14 578.24C601.44 531.54 591.93 482.95 579.65 438.05C563.64 452.31 529.14 484.04 511.87 507.19C509.82 509.93 506.91 511.7 503.65 512.22C505.67 517.11 505.19 530.43 505.71 534.88C509.29 564.53 519.95 589.77 526.42 618.21C531.2 639.23 532.31 661.55 539.9 681.8C541.83 686.96 543.45 690.51 544.73 693.64L593.87 680.66C592.85 676.13 592.04 671.51 591.52 666.76H591.53Z" fill="#949BA7"/>
<path id="groin" d="M509.03 505.07C526.94 481.05 563.06 448.01 578.53 434.28C576.24 426.9 572.97 418.53 570.54 410.6L511.47 425.38C508.54 426.12 505.51 426.49 502.5 426.49H497.5C494.49 426.49 491.46 426.12 488.53 425.38L429.46 410.6C427.03 418.53 423.76 426.91 421.47 434.28C436.94 448.01 473.06 481.05 490.97 505.07C492.82 507.54 495.65 508.89 498.69 508.84C499.13 508.83 500.86 508.83 501.3 508.84C504.34 508.9 507.17 507.55 509.02 505.07H509.03Z" fill="#949BA7"/>
<path id="foot-right-top" d="M425.26 901.34L391.33 898.82C391.32 899.19 391.29 899.57 391.22 899.97C390.77 902.54 380.12 917.24 377.74 920.23C375.21 923.41 361.79 933.51 354.78 940.36C355.95 940.81 356.5 941.61 356.76 942.21C357.1 943.01 357.09 943.8 356.94 944.54C357.2 944.64 357.45 944.74 357.71 944.84C358.52 944.41 359.4 944.14 360.37 944.14C360.98 944.14 361.59 944.25 362.16 944.47C363.43 944.95 364.01 945.81 364.28 946.43C364.49 946.93 364.58 947.44 364.58 947.94C364.91 948.11 365.23 948.27 365.56 948.44C366.33 947.94 367.05 947.62 367.68 947.53C368.05 947.47 368.43 947.44 368.8 947.44C370.55 947.44 372.03 948.04 372.94 949.13C373.52 949.81 374.15 951.01 373.84 952.78C373.83 952.82 373.83 952.87 373.81 952.92C373.97 953.02 374.12 953.1 374.29 953.22C375.46 952.52 377.16 951.87 378.85 951.87C380.54 951.87 381.55 952.54 382.09 953.11C382.63 953.65 383.26 954.63 383.21 956.24C383.2 956.85 383.01 957.63 382.7 958.5C382.87 958.6 383.04 958.71 383.23 958.84C384.32 957.69 385.26 956.82 385.86 956.45C386.37 956.14 388.15 955.27 389.14 955.14C389.41 955.11 389.69 955.1 389.96 955.1C392.7 955.1 395.52 956.76 397.12 959.34C397.45 959.88 397.72 960.43 397.92 960.99C401.26 957.62 404.9 953.56 405.91 952.53C408.31 950.11 409.51 945.27 411 943.86C412.52 942.42 417.72 942.11 420.47 940.8C434.29 934.25 425.26 916.73 424.91 905.83C424.87 904.29 425.02 902.79 425.27 901.34H425.26Z" fill="#949BA7"/>
<g id="toes-right">
<path id="index-toe-right" d="M381.07 956.19C381.11 954.58 380.1 954.01 378.84 954.01C378.09 954.01 377.23 954.21 376.45 954.52C375.87 954.75 375.33 955.05 374.9 955.34C372.68 956.93 365.4 964.89 365.93 967.58C366.3 969.44 368.02 970.58 369.78 970.58C370.11 970.58 370.43 970.54 370.76 970.47C373.55 969.76 379.66 961.32 380.87 957.29C380.98 956.86 381.05 956.49 381.07 956.18V956.19Z" fill="#949BA7"/>
<path id="middle-toe-right" d="M371.78 951.78C371.72 950.23 370.33 949.58 368.79 949.58C368.52 949.58 368.25 949.59 367.98 949.64C367.95 949.64 367.92 949.65 367.89 949.65C365.25 950.18 358.92 957.75 358.51 960.31C358.38 961.12 358.18 962.4 358.82 963C359.55 963.68 360.51 964.02 361.49 964.02C362.27 964.02 363.07 963.79 363.75 963.34C365.33 962.26 371.4 954.24 371.71 952.44C371.75 952.2 371.77 951.99 371.77 951.79L371.78 951.78Z" fill="#949BA7"/>
<path id="ring-toe-right" d="M361.4 946.48C361.06 946.34 360.7 946.28 360.36 946.28C358.51 946.28 356.81 948.04 355.61 949.29C354.16 950.83 351.6 953.7 352.35 955.93C352.49 956.36 353.52 957.39 354 957.48C354.06 957.49 354.11 957.49 354.17 957.49C356.22 957.49 361.08 951.9 361.79 950.18C362.32 948.91 363.1 947.11 361.39 946.47L361.4 946.48Z" fill="#949BA7"/>
<path id="pinky-toe-right" d="M354.89 943.8C354.95 943.19 354.75 942.63 353.99 942.35C353.69 942.24 353.39 942.19 353.11 942.19H352.98C351.42 942.28 349.99 943.74 349 944.79C347.73 946.11 345.52 948.6 346.19 950.53C346.3 950.89 347.19 951.78 347.61 951.87C347.65 951.87 347.71 951.88 347.75 951.88C349.51 951.88 353.72 947.05 354.35 945.55C354.56 945.02 354.85 944.37 354.89 943.79V943.8Z" fill="#949BA7"/>
<path id="big-toe-right" d="M389.96 957.24C389.78 957.24 389.59 957.25 389.39 957.27C388.89 957.34 387.46 957.98 386.97 958.28C386.54 958.54 385.85 959.19 385.01 960.07C382.02 963.17 377.25 969.11 376.48 970.79C374.53 975.11 377.99 977.41 381.75 977.41C382.84 977.41 383.97 977.23 384.98 976.83C387.65 975.81 394.45 968.34 395.73 965.74C396.21 964.76 396.33 963.72 396.16 962.73C395.71 959.8 392.83 957.24 389.96 957.24Z" fill="#949BA7"/>
</g>
<path id="shoulder-right-front" d="M418.41 218.87C428.62 205.37 425.28 187.93 422.86 179.21C418.03 180.84 413.44 182 408.41 183.25C392.08 187.31 378.82 200.4 374.28 216.58C372.39 223.35 371.67 230.35 371.27 237.38C394.06 236.38 409.86 230.2 418.41 218.88V218.87Z" fill="#949BA7"/>
<path id="shoulder-left-front" d="M581.56 218.87C571.35 205.37 574.69 187.93 577.11 179.21C581.94 180.84 586.53 182 591.56 183.25C607.89 187.31 621.15 200.4 625.69 216.58C627.58 223.35 628.3 230.35 628.7 237.38C605.91 236.38 590.11 230.2 581.56 218.88V218.87Z" fill="#949BA7"/>
<g id="fingers-right">
<path id="thumb-finger-right" d="M248.91 465.67C251.98 465.41 256.91 462.87 260.42 462.45L258.47 450.37C257.29 451.04 256.08 451.68 254.82 452.22C249.93 454.3 241.78 455.43 238.08 457.37C229.71 461.75 243.25 466.15 248.91 465.68V465.67Z" fill="#949BA7"/>
<path id="index-finger-right" d="M265 490.53C261.59 487.72 259.24 484.64 257.71 482.11C250.83 491.3 240.22 500.96 237.02 509.06C234.42 515.66 236.9 520.72 243.84 516.67C249.6 508.79 255.84 500.1 262.54 493.06C263.18 492.38 264.04 491.32 265 490.54V490.53Z" fill="#949BA7"/>
<path id="middle-finger-right" d="M271.55 494.71C270.66 494.29 269.8 493.82 269 493.34C265.32 501.54 251.96 523.58 252.77 528.74C253.45 533.06 259.12 534.46 261.53 530.44C263.96 526.64 274.11 504.43 278.66 497.23C276.17 496.64 273.81 495.79 271.56 494.72L271.55 494.71Z" fill="#949BA7"/>
<path id="ring-finger-right" d="M283.07 498.02C282.63 497.97 282.2 497.91 281.76 497.83C281.65 499.32 281.27 500.93 281.18 501.41C279.57 510.29 277.05 519.27 274.12 527.8C273.26 534.15 279.62 535.93 282.96 530.21C285.01 526.71 287.26 516.43 288.48 511.84C288.95 510.08 289.92 502.35 291.61 498.24C288.62 498.42 285.78 498.35 283.06 498.01L283.07 498.02Z" fill="#949BA7"/>
<path id="pinky-finger-right" d="M305.13 495.89C301.69 496.83 298.39 497.5 295.22 497.89C297.42 504.95 294.2 522.58 297.4 524.13C306.9 528.75 304.33 503.58 304.69 499.36C304.8 498.13 304.94 496.98 305.13 495.89Z" fill="#949BA7"/>
</g>
<path id="hand-right" d="M285.7 439.73C280.25 441.9 272.84 442.93 266.92 445.56C265.19 446.32 263.48 447.35 261.75 448.39L264.32 464.28V464.32C264.44 464.68 264.51 465.09 264.53 465.58V465.61C264.54 465.83 264.54 466.07 264.53 466.33C264.49 467.89 264.03 469.98 263.09 472.73C262.42 474.71 261.34 476.77 259.98 478.85C260.42 479.69 260.99 480.65 261.7 481.68C263.95 484.95 267.58 488.86 273.16 491.53C281.88 495.73 292.91 495.86 305.99 491.95C308.09 484.23 311.92 479.63 313.83 471.24C315.65 463.27 316.02 459.03 317.5 454.4L288.49 437.24C287.52 438.48 286.57 439.37 285.71 439.72L285.7 439.73Z" fill="#949BA7"/>
<path id="arm-right-lower" d="M379.06 343.3L339.99 322.54C336.79 326.39 332.94 330.07 330.16 334.07C314.03 357.25 309.39 389.69 299.06 415.92C297.69 419.38 294.09 428.37 290.49 434.31L318.75 451.03C319.82 448.48 321.35 445.58 323.63 441.8C336.31 420.82 354.76 402.5 365.52 380.37C371.39 368.33 373.88 355.04 379.06 343.3Z" fill="#949BA7"/>
<path id="arm-right-upper" d="M404.99 275.7L405.21 232.37C396.38 236.96 383.14 240.2 370.37 239.18C370.08 240.85 369.41 243.47 369.13 245.14C366.99 257.88 363.03 269.69 358.7 281.78C354.72 292.9 349.43 305.45 344.46 315.87C343.84 317.18 343.07 318.45 342.19 319.69L380.58 340.08C384.98 331.48 405.85 288.99 404.99 275.7Z" fill="#949BA7"/>
<path id="underarm-right" d="M419.84 280.26L414.61 231.92C413.96 229.9 412.42 228.71 410.96 229.12C409.56 229.51 408.62 231.25 408.7 233.31C409.05 243 408.46 267.14 408.5 277.08C408.5 277.08 406.43 284.09 419.84 280.25V280.26Z" fill="#949BA7"/>
<path id="foot-left-top" d="M610.04 955.11C610.31 955.11 610.59 955.12 610.86 955.15C611.86 955.28 613.63 956.15 614.14 956.46C614.74 956.83 615.68 957.7 616.77 958.85C616.95 958.72 617.13 958.61 617.3 958.51C616.99 957.64 616.8 956.86 616.79 956.25C616.75 954.64 617.37 953.66 617.91 953.12C618.45 952.55 619.46 951.88 621.15 951.88C622.84 951.88 624.55 952.53 625.71 953.23C625.88 953.12 626.04 953.03 626.19 952.93C626.18 952.87 626.18 952.83 626.16 952.79C625.85 951.01 626.47 949.82 627.06 949.14C627.97 948.05 629.45 947.45 631.2 947.45C631.57 947.45 631.95 947.48 632.32 947.54C632.95 947.63 633.67 947.95 634.44 948.45C634.77 948.28 635.09 948.12 635.42 947.95C635.42 947.45 635.51 946.94 635.72 946.44C635.99 945.81 636.57 944.96 637.84 944.48C638.41 944.27 639.02 944.15 639.63 944.15C640.6 944.15 641.48 944.42 642.29 944.85C642.55 944.75 642.8 944.65 643.06 944.55C642.92 943.81 642.9 943.01 643.24 942.22C643.5 941.62 644.05 940.83 645.22 940.37C638.21 933.52 624.79 923.43 622.26 920.24C619.89 917.25 609.24 902.56 608.78 899.98C608.71 899.58 608.68 899.2 608.67 898.83L574.74 901.35C574.98 902.8 575.14 904.31 575.1 905.84C574.74 916.74 565.72 934.26 579.54 940.81C582.28 942.12 587.49 942.43 589.01 943.87C590.5 945.28 591.7 950.12 594.1 952.54C595.11 953.56 598.75 957.63 602.09 961C602.29 960.45 602.56 959.89 602.89 959.35C604.5 956.78 607.31 955.11 610.05 955.11H610.04Z" fill="#949BA7"/>
<g id="toes-left">
<path id="index-toe-left" d="M625.1 955.35C624.67 955.05 624.13 954.75 623.55 954.53C622.77 954.22 621.92 954.02 621.16 954.02C619.89 954.02 618.89 954.59 618.93 956.2C618.94 956.51 619.02 956.88 619.13 957.31C620.34 961.33 626.45 969.78 629.24 970.49C629.57 970.56 629.89 970.6 630.22 970.6C631.98 970.6 633.7 969.46 634.07 967.6C634.6 964.91 627.32 956.95 625.1 955.36V955.35Z" fill="#949BA7"/>
<path id="middle-toe-left" d="M632.1 949.65C632.1 949.65 632.04 949.64 632.01 949.64C631.74 949.6 631.47 949.58 631.2 949.58C629.66 949.58 628.27 950.23 628.21 951.78C628.21 951.98 628.22 952.19 628.27 952.43C628.58 954.24 634.65 962.25 636.23 963.33C636.91 963.78 637.71 964.01 638.49 964.01C639.47 964.01 640.44 963.67 641.16 962.99C641.8 962.39 641.6 961.11 641.47 960.3C641.06 957.74 634.73 950.16 632.09 949.64L632.1 949.65Z" fill="#949BA7"/>
<path id="ring-toe-left" d="M639.64 946.28C639.3 946.28 638.94 946.34 638.6 946.48C636.89 947.12 637.68 948.93 638.2 950.19C638.91 951.91 643.77 957.5 645.82 957.5C645.88 957.5 645.93 957.5 645.99 957.49C646.47 957.4 647.5 956.37 647.64 955.94C648.39 953.71 645.83 950.84 644.38 949.3C643.19 948.05 641.48 946.29 639.63 946.29L639.64 946.28Z" fill="#949BA7"/>
<path id="pinky-toe-left" d="M647.02 942.2H646.89C646.61 942.2 646.31 942.24 646.01 942.36C645.26 942.64 645.06 943.2 645.11 943.81C645.15 944.39 645.44 945.05 645.65 945.57C646.28 947.06 650.48 951.9 652.25 951.9C652.29 951.9 652.35 951.89 652.39 951.89C652.82 951.8 653.7 950.91 653.81 950.55C654.48 948.62 652.26 946.13 651 944.81C650 943.76 648.58 942.29 647.02 942.21V942.2Z" fill="#949BA7"/>
<path id="big-toe-left" d="M614.99 960.07C614.15 959.19 613.45 958.53 613.03 958.28C612.55 957.98 611.11 957.34 610.61 957.27C610.41 957.26 610.23 957.24 610.04 957.24C607.17 957.24 604.3 959.8 603.84 962.73C603.67 963.73 603.78 964.76 604.27 965.74C605.55 968.34 612.34 975.8 615.02 976.83C616.03 977.23 617.15 977.41 618.25 977.41C622.02 977.41 625.47 975.11 623.52 970.79C622.75 969.11 617.98 963.17 614.99 960.07Z" fill="#949BA7"/>
</g>
<g id="fingers-left">
<path id="thumb-finger-left" d="M761.92 457.36C758.22 455.42 750.08 454.29 745.18 452.21C743.93 451.68 742.72 451.04 741.53 450.36L739.58 462.44C743.08 462.86 748.02 465.41 751.09 465.66C756.75 466.13 770.29 461.73 761.92 457.35V457.36Z" fill="#949BA7"/>
<path id="index-finger-left" d="M742.3 482.1C740.76 484.64 738.42 487.71 735.01 490.52C735.97 491.31 736.82 492.36 737.47 493.04C744.17 500.08 750.42 508.78 756.17 516.65C763.11 520.7 765.59 515.64 762.99 509.04C759.8 500.94 749.18 491.28 742.3 482.09V482.1Z" fill="#949BA7"/>
<path id="middle-finger-left" d="M728.45 494.71C726.2 495.79 723.84 496.63 721.35 497.22C725.9 504.43 736.05 526.63 738.48 530.43C740.89 534.45 746.56 533.05 747.24 528.73C748.04 523.58 734.69 501.53 731.01 493.33C730.21 493.81 729.35 494.28 728.46 494.7L728.45 494.71Z" fill="#949BA7"/>
<path id="ring-finger-left" d="M718.82 501.41C718.73 500.93 718.35 499.32 718.24 497.83C717.81 497.91 717.37 497.96 716.93 498.02C714.21 498.35 711.37 498.43 708.38 498.25C710.07 502.35 711.04 510.08 711.51 511.85C712.73 516.44 714.98 526.72 717.03 530.22C720.38 535.94 726.73 534.16 725.87 527.81C722.94 519.27 720.43 510.3 718.81 501.42L718.82 501.41Z" fill="#949BA7"/>
<path id="pinky-finger-left" d="M694.87 495.89C695.06 496.98 695.2 498.13 695.31 499.36C695.67 503.58 693.1 528.76 702.6 524.13C705.8 522.58 702.58 504.94 704.78 497.89C701.61 497.5 698.31 496.83 694.87 495.89Z" fill="#949BA7"/>
</g>
<path id="hand-left" d="M726.849 491.54C732.419 488.87 736.06 484.96 738.31 481.69C739.01 480.66 739.59 479.7 740.03 478.86C738.67 476.78 737.589 474.72 736.919 472.74C735.979 469.99 735.529 467.9 735.479 466.36C735.459 466.09 735.459 465.85 735.479 465.63V465.6C735.499 465.11 735.57 464.7 735.68 464.34V464.3L738.26 448.41C736.53 447.36 734.81 446.34 733.09 445.58C727.17 442.95 719.76 441.92 714.31 439.75C713.45 439.4 712.5 438.51 711.53 437.27L682.52 454.43C684 459.06 684.37 463.3 686.19 471.27C688.1 479.66 691.93 484.26 694.03 491.98C707.11 495.88 718.129 495.76 726.859 491.56L726.849 491.54Z" fill="#949BA7"/>
<path id="arm-left-lower" d="M700.94 415.92C690.61 389.7 685.97 357.25 669.84 334.07C667.06 330.07 663.22 326.39 660.01 322.54L620.94 343.3C626.12 355.04 628.62 368.33 634.48 380.37C645.24 402.5 663.69 420.82 676.37 441.8C678.65 445.57 680.18 448.48 681.25 451.03L709.51 434.31C705.91 428.38 702.3 419.38 700.94 415.92Z" fill="#949BA7"/>
<path id="arm-left-upper" d="M594.8 232.37L595.02 275.7C594.16 289 615.03 331.48 619.43 340.08L657.82 319.69C656.94 318.45 656.17 317.18 655.55 315.87C650.58 305.45 645.29 292.89 641.31 281.78C636.99 269.69 633.03 257.89 630.88 245.14C630.6 243.47 629.93 240.85 629.64 239.18C616.87 240.19 603.63 236.95 594.8 232.37Z" fill="#949BA7"/>
<path id="underarm-left" d="M589.05 229.12C587.59 228.71 586.05 229.9 585.4 231.92L580.17 280.26C593.58 284.1 591.51 277.09 591.51 277.09C591.56 267.15 590.96 243.01 591.31 233.32C591.39 231.25 590.44 229.52 589.05 229.13V229.12Z" fill="#949BA7"/>
</g>
</g>
<defs>
<clipPath id="clip0_98_2">
<rect width="1000" height="1000" fill="white"/>
</clipPath>
</defs>
</svg>
